<svg width="53" height="53" viewBox="0 0 53 53" fill="none" xmlns="http://www.w3.org/2000/svg">
<path d="M47 42.5714V38.0714H7V42.5714L5 49H49L47 42.5714Z" fill="#333331" stroke="#FDB106" stroke-linejoin="round"/>
<path d="M16.4803 22.5549C16.8584 22.5549 17.1675 22.1573 17.1675 21.6712V19.0852C17.1675 18.5991 16.8582 18.2014 16.4803 18.2014H7.48483C7.10673 18.2014 6.79761 18.5991 6.79761 19.0852V21.6712C6.79761 22.1573 7.10689 22.5549 7.48483 22.5549H8.96274C9.34084 22.5549 9.65012 22.9526 9.65012 23.4387V29.7071C9.65012 30.1933 9.34068 30.5909 8.96274 30.5909H7.48483C7.10673 30.5909 6.79761 30.9886 6.79761 31.4745V34.0604C6.79761 34.5466 7.10689 34.944 7.48483 34.944H16.4801C16.8582 34.944 17.1674 34.5464 17.1674 34.0604V31.4745C17.1674 30.9883 16.8581 30.5909 16.4801 30.5909H15.0022C14.6241 30.5909 14.315 30.1933 14.315 29.7071V23.4387C14.315 22.9526 14.6243 22.5549 15.0022 22.5549H16.4803Z" fill="#333331"/>
<path d="M31.3834 22.5549C31.7615 22.5549 32.0708 22.1573 32.0708 21.6712V19.0852C32.0708 18.5991 31.7613 18.2014 31.3834 18.2014H22.3884C22.0103 18.2014 21.7012 18.5991 21.7012 19.0852V21.6712C21.7012 22.1573 22.0105 22.5549 22.3884 22.5549H23.8663C24.2442 22.5549 24.5535 22.9526 24.5535 23.4387V29.7071C24.5535 30.1933 24.2442 30.5909 23.8663 30.5909H22.3884C22.0103 30.5909 21.7012 30.9886 21.7012 31.4745V34.0604C21.7012 34.5466 22.0105 34.944 22.3884 34.944H31.3834C31.7615 34.944 32.0708 34.5464 32.0708 34.0604V31.4745C32.0708 30.9883 31.7613 30.5909 31.3834 30.5909H29.9058C29.5277 30.5909 29.2184 30.1933 29.2184 29.7071V23.4387C29.2184 22.9526 29.5279 22.5549 29.9058 22.5549H31.3834Z" fill="#333331"/>
<path d="M46.3472 22.5549C46.7254 22.5549 47.0346 22.1573 47.0346 21.6712V19.0852C47.0346 18.5991 46.7252 18.2014 46.3472 18.2014H37.3524C36.9743 18.2014 36.665 18.5991 36.665 19.0852V21.6712C36.665 22.1573 36.9745 22.5549 37.3524 22.5549H38.83C39.2081 22.5549 39.5174 22.9526 39.5174 23.4387V29.7071C39.5174 30.1933 39.2079 30.5909 38.83 30.5909H37.3524C36.9743 30.5909 36.665 30.9886 36.665 31.4745V34.0604C36.665 34.5466 36.9745 34.944 37.3524 34.944H46.3472C46.7254 34.944 47.0346 34.5464 47.0346 34.0604V31.4745C47.0346 30.9883 46.7252 30.5909 46.3472 30.5909H44.8697C44.4916 30.5909 44.1823 30.1933 44.1823 29.7071V23.4387C44.1823 22.9526 44.4917 22.5549 44.8697 22.5549H46.3472Z" fill="#333331"/>
<path d="M47 16.8571H7V10.4286L27 4L47 10.4286V16.8571Z" fill="#333331" stroke="#FDB106" stroke-linejoin="round"/>
</svg>
