<svg width="53" height="53" viewBox="0 0 53 53" fill="none" xmlns="http://www.w3.org/2000/svg">
<path d="M33.1373 14.057H19.8627C19.6695 14.0739 19.4897 14.1608 19.3588 14.3007C19.2279 14.4406 19.1553 14.6233 19.1553 14.8129C19.1553 15.0025 19.2279 15.1852 19.3588 15.325C19.4897 15.4649 19.6695 15.5519 19.8627 15.5687H33.1373C33.2447 15.5781 33.3529 15.5655 33.455 15.5318C33.5571 15.4981 33.651 15.444 33.7305 15.3729C33.8101 15.3017 33.8736 15.2152 33.917 15.1188C33.9605 15.0224 33.9829 14.9182 33.9829 14.8129C33.9829 14.7075 33.9605 14.6033 33.917 14.5069C33.8736 14.4105 33.8101 14.324 33.7305 14.2529C33.651 14.1818 33.5571 14.1277 33.455 14.094C33.3529 14.0602 33.2447 14.0477 33.1373 14.057Z" fill="#333331"/>
<path d="M33.1373 16.4722H19.8627C19.6695 16.4891 19.4897 16.576 19.3588 16.7159C19.2279 16.8558 19.1553 17.0385 19.1553 17.228C19.1553 17.4176 19.2279 17.6003 19.3588 17.7402C19.4897 17.8801 19.6695 17.967 19.8627 17.9839H33.1373C33.2447 17.9933 33.3529 17.9807 33.455 17.947C33.5571 17.9132 33.651 17.8591 33.7305 17.788C33.8101 17.7169 33.8736 17.6304 33.917 17.534C33.9605 17.4376 33.9829 17.3334 33.9829 17.228C33.9829 17.1227 33.9605 17.0185 33.917 16.9221C33.8736 16.8257 33.8101 16.7392 33.7305 16.6681C33.651 16.597 33.5571 16.5428 33.455 16.5091C33.3529 16.4754 33.2447 16.4628 33.1373 16.4722Z" fill="#333331"/>
<path d="M46.5599 46.7906C47.4971 42.177 47.019 37.3956 45.1856 33.0467C41.5249 24.386 32.0958 19.1462 32.0958 19.1462H20.9042C20.9042 19.1462 11.4751 24.386 7.81439 33.0467C5.98092 37.3956 5.50281 42.177 6.44009 46.7906C0.616253 48.8564 1.1709 53 3.89486 53H49.1051C51.829 53 52.3837 48.8564 46.5599 46.7906Z" fill="#333331"/>
<path d="M20.9041 12.997H32.0957C32.0957 12.997 34.4807 8.17886 35.7934 6.55273C37.1061 4.92659 35.3558 1.67432 31.1959 2.93909C29.8278 3.32455 30.4934 0 26.4999 0C22.5064 0 23.172 3.32455 21.8347 2.92102C17.6748 1.67432 15.9554 4.93864 17.2372 6.53466C18.5191 8.13068 20.9041 12.997 20.9041 12.997Z" fill="#333331"/>
<path d="M28.281 34.7692L28.3488 29.7282C28.89 29.9681 29.3746 30.3146 29.7724 30.7461C30.3003 31.4059 30.6994 32.1552 30.9495 32.9564C30.9495 33.0287 31.0419 33.0287 31.1405 33.0227L31.7999 32.9444C31.8218 32.9428 31.8431 32.9371 31.8627 32.9275C31.8823 32.9179 31.8998 32.9046 31.9141 32.8883C31.9284 32.8721 31.9393 32.8533 31.9462 32.8329C31.953 32.8125 31.9557 32.7911 31.954 32.7697C31.9047 32.2758 31.7691 30.1257 31.726 28.7947C31.726 28.5959 31.6212 28.4996 31.4302 28.4996C31.3633 28.4923 31.2956 28.4981 31.231 28.5167C31.1664 28.5353 31.1063 28.5664 31.0542 28.608L30.7153 28.9031C30.6339 28.9567 30.5415 28.992 30.4445 29.0066C30.3476 29.0212 30.2485 29.0146 30.1545 28.9874C29.4211 28.8248 28.9219 28.7104 28.3056 28.62V27.1625C28.3056 27.012 28.2378 26.9397 28.0776 26.9397H27.3874C27.2271 26.9397 27.1655 26.9397 27.1717 27.1866V28.4996C26.6368 28.4538 26.0994 28.4437 25.5632 28.4695V27.1866C25.5632 27.0361 25.4954 26.9638 25.3352 26.9638H24.6388C24.4847 26.9638 24.4231 27.018 24.4292 27.1866V28.5719C23.4828 28.6938 22.5746 29.0143 21.7669 29.5114C21.135 29.8511 20.6148 30.3592 20.2667 30.9765C19.9187 31.5938 19.7572 32.295 19.801 32.9986C19.7854 33.6216 19.935 34.2379 20.2352 34.7877C20.5354 35.3375 20.976 35.8021 21.5142 36.1364C22.4013 36.7055 23.4043 37.0795 24.4539 37.2325L24.4169 42.6951C23.5902 42.3348 22.8524 41.8049 22.2538 41.1413C21.8376 40.3992 21.5935 39.5767 21.5389 38.7322C21.5389 38.5816 21.4711 38.5575 21.3478 38.5575H20.6514C20.5282 38.5575 20.4296 38.6117 20.4357 38.7322C20.3618 39.3345 20.1707 41.9965 20.0721 42.9481C20.0721 43.2733 20.1831 43.3697 20.3741 43.3637C20.5652 43.3576 20.75 43.3637 20.8117 43.2372C21.052 42.8879 21.1691 42.7614 21.3602 42.7614C21.6077 42.7946 21.8462 42.8744 22.0627 42.9963C22.8241 43.3193 23.6142 43.5733 24.4231 43.7551V45.2126C24.4231 45.3873 24.4662 45.4596 24.6572 45.4596H25.3475C25.5077 45.4596 25.5693 45.3813 25.5632 45.2367V43.8997C26.1057 43.9775 26.6547 44.0037 27.2025 43.978V45.1825C27.2025 45.3572 27.2395 45.4295 27.4305 45.4234H28.0468C28.207 45.4234 28.2995 45.3692 28.2933 45.1705V43.8636C31.6212 43.3757 33.2235 41.3762 33.1866 39.3284C33.1064 36.5339 31.4918 35.4137 28.281 34.7692Z" fill="#FDB106"/>
<path d="M33.8399 22.4106C33.8399 22.4106 39.3864 31.4989 40.8655 38.9972C42.3446 46.4955 39.7377 50.7415 39.7377 50.7415C41.1428 49.7598 44.6679 46.628 44.7234 42.394C44.859 31.4627 33.8399 22.4106 33.8399 22.4106Z" fill="#FDB106"/>
<path d="M24.417 29.5836V34.0043C23.9535 33.8973 23.5423 33.6365 23.2535 33.2664C22.9647 32.8963 22.8161 32.4398 22.8331 31.9746C22.7676 31.4578 22.8904 30.9348 23.18 30.4976C23.4696 30.0603 23.9076 29.7368 24.417 29.5836Z" fill="#333331"/>
<path d="M27.1902 29.4451C26.6627 29.3163 26.1157 29.2816 25.5756 29.3427V34.3115C26.1031 34.4546 26.6441 34.5453 27.1902 34.5825V29.4451Z" fill="#333331"/>
<path d="M28.3488 38.0034V42.9421C28.8797 42.7698 29.3415 42.4386 29.6689 41.9954C29.9962 41.5521 30.1724 41.0194 30.1724 40.4727C30.1724 39.9261 29.9962 39.3934 29.6689 38.9501C29.3415 38.5069 28.8797 38.1756 28.3488 38.0034Z" fill="#333331"/>
<path d="M25.5632 43.0023C26.1046 43.0911 26.6549 43.1174 27.2025 43.0806V37.7444C26.3767 37.5818 25.933 37.5156 25.5817 37.4252L25.5632 43.0023Z" fill="#333331"/>
</svg>
