<svg width="53" height="36" viewBox="0 0 53 36" fill="none" xmlns="http://www.w3.org/2000/svg">
<path d="M49.7035 23.7606H53.0006V27.0497C53.0014 27.1595 52.9803 27.2684 52.9385 27.37C52.8966 27.4717 52.8349 27.564 52.7569 27.6416C52.6789 27.7193 52.5862 27.7807 52.4842 27.8224C52.3821 27.864 52.2727 27.8851 52.1624 27.8843H49.6973L49.7035 23.7606Z" fill="#333331"/>
<path d="M52.7542 0.246093C52.6745 0.164342 52.5785 0.100228 52.4723 0.0579338C52.3661 0.0156397 52.2522 -0.00388321 52.1379 0.000638916H12.5173C12.3009 0.01008 12.0964 0.101967 11.9462 0.257297C11.7959 0.412627 11.7113 0.619519 11.71 0.835184V2.57178H48.8654C48.9757 2.57096 49.0851 2.59199 49.1871 2.63364C49.2892 2.67529 49.3819 2.73673 49.4599 2.81439C49.5379 2.89205 49.5996 2.98437 49.6414 3.08599C49.6833 3.18761 49.7044 3.2965 49.7036 3.40632V18.7472H53.0007V0.835184C53.0018 0.725488 52.9805 0.616709 52.9381 0.515446C52.8958 0.414183 52.8332 0.322546 52.7542 0.246093Z" fill="#333331"/>
<path d="M43.6393 31.7011H46.4557C46.5699 31.7048 46.6837 31.685 46.7897 31.6427C46.8958 31.6005 46.9919 31.5368 47.072 31.4556C47.1529 31.3755 47.2165 31.2797 47.2589 31.1741C47.3013 31.0686 47.3216 30.9556 47.3185 30.842V27.5775H43.6393V31.7011Z" fill="#333331"/>
<path d="M46.4557 3.79906H6.81048C6.69647 3.79675 6.58317 3.81729 6.47729 3.85946C6.37142 3.90162 6.27515 3.96456 6.1942 4.04452C6.11331 4.1247 6.04972 4.22049 6.00733 4.326C5.96495 4.43152 5.94465 4.54455 5.94768 4.65816V6.67702H42.8012C43.0178 6.67839 43.2255 6.76259 43.3815 6.91221C43.5375 7.06183 43.6298 7.26542 43.6393 7.48088V22.5211H47.2938V4.64588C47.2955 4.53246 47.2745 4.41984 47.2322 4.31452C47.1899 4.2092 47.1271 4.11326 47.0473 4.03225C46.8879 3.88122 46.6758 3.79764 46.4557 3.79906Z" fill="#333331"/>
<path d="M0.000641665 34.9902C-0.00389993 35.104 0.0157072 35.2175 0.0581834 35.3232C0.10066 35.4289 0.16505 35.5246 0.247153 35.6038C0.326776 35.6856 0.422817 35.7497 0.529007 35.792C0.635198 35.8343 0.749152 35.8538 0.863432 35.8493H40.484C40.7058 35.8477 40.918 35.7592 41.0749 35.6031C41.2317 35.4469 41.3205 35.2356 41.3222 35.0147V31.7011H0.000641665V34.9902Z" fill="#333331"/>
<path d="M41.0757 8.18039C41.2361 8.3444 41.3248 8.56506 41.3222 8.79403V26.6447H0.000671387V8.77562C0.00066545 8.55372 0.088772 8.34081 0.245779 8.18333C0.402786 8.02584 0.615958 7.93656 0.838811 7.93494H40.484C40.7056 7.93808 40.9174 8.02597 41.0757 8.18039Z" fill="#333331"/>
<path d="M7.80277 24.7302C7.80277 24.652 7.7716 24.5771 7.71613 24.5219C7.66065 24.4667 7.58541 24.4356 7.50695 24.4356H6.373V21.5945H4.59812C4.55904 21.5937 4.5202 21.6007 4.48393 21.6152C4.44766 21.6297 4.41471 21.6514 4.38707 21.6789C4.35944 21.7064 4.33768 21.7392 4.32311 21.7753C4.30854 21.8114 4.30146 21.8501 4.3023 21.889C4.3023 21.9672 4.33347 22.0421 4.38895 22.0973C4.44442 22.1525 4.51966 22.1836 4.59812 22.1836H5.78137V24.4418H4.59812C4.51639 24.4418 4.43802 24.4741 4.38023 24.5316C4.32244 24.5892 4.28998 24.6672 4.28998 24.7486C4.28998 24.8299 4.32244 24.908 4.38023 24.9655C4.43802 25.0231 4.51639 25.0554 4.59812 25.0554H7.50695C7.54854 25.0556 7.5897 25.0471 7.62776 25.0304C7.66581 25.0137 7.69991 24.9893 7.72782 24.9586C7.75574 24.9279 7.77684 24.8917 7.78975 24.8523C7.80267 24.813 7.8071 24.7713 7.80277 24.7302Z" fill="#FDB106"/>
<path d="M10.958 21.5945H8.19707C8.15799 21.5937 8.11915 21.6007 8.08288 21.6152C8.04661 21.6297 8.01366 21.6514 7.98602 21.6789C7.95838 21.7064 7.93662 21.7392 7.92206 21.7753C7.90749 21.8114 7.90041 21.8501 7.90125 21.889C7.90125 21.9672 7.93242 22.0421 7.98789 22.0973C8.04337 22.1525 8.11861 22.1836 8.19707 22.1836H10.3664V23.0181H7.90125V25.0308H10.6622C10.7439 25.0308 10.8223 24.9985 10.8801 24.941C10.9379 24.8834 10.9703 24.8054 10.9703 24.724C10.9703 24.6427 10.9379 24.5646 10.8801 24.5071C10.8223 24.4495 10.7439 24.4172 10.6622 24.4172H8.49288V23.6011H10.958V21.5945Z" fill="#FDB106"/>
<path d="M14.5571 21.5945H11.7962C11.7571 21.5937 11.7183 21.6007 11.682 21.6152C11.6457 21.6297 11.6128 21.6514 11.5851 21.6789C11.5575 21.7064 11.5357 21.7392 11.5212 21.7753C11.5066 21.8114 11.4995 21.8501 11.5004 21.889C11.5004 21.9672 11.5315 22.0421 11.587 22.0973C11.6425 22.1525 11.7177 22.1836 11.7962 22.1836H13.9655V23.0181H11.7962C11.7571 23.0173 11.7183 23.0243 11.682 23.0388C11.6457 23.0533 11.6128 23.075 11.5851 23.1025C11.5575 23.13 11.5357 23.1629 11.5212 23.199C11.5066 23.2351 11.4995 23.2738 11.5004 23.3127C11.5004 23.3513 11.508 23.3896 11.5229 23.4254C11.5377 23.4611 11.5595 23.4936 11.587 23.5209C11.6145 23.5483 11.6471 23.57 11.683 23.5848C11.7189 23.5996 11.7573 23.6072 11.7962 23.6072H13.9655V24.4418H11.7962C11.7145 24.4418 11.6361 24.4741 11.5783 24.5316C11.5205 24.5892 11.488 24.6672 11.488 24.7486C11.488 24.8299 11.5205 24.908 11.5783 24.9655C11.6361 25.0231 11.7145 25.0554 11.7962 25.0554H14.5571V21.5945Z" fill="#FDB106"/>
<path d="M18.1562 21.8829C18.1547 21.808 18.1245 21.7364 18.0718 21.6828C18.0192 21.6292 17.9479 21.5976 17.8727 21.5945C17.8336 21.5937 17.7948 21.6007 17.7585 21.6153C17.7222 21.6298 17.6893 21.6514 17.6616 21.6789C17.634 21.7065 17.6122 21.7393 17.5977 21.7754C17.5831 21.8115 17.576 21.8502 17.5769 21.8891V23.0182H15.728V21.8829C15.7273 21.8426 15.7183 21.8029 15.7016 21.7662C15.6848 21.7295 15.6607 21.6966 15.6306 21.6695C15.6006 21.6425 15.5653 21.6219 15.5269 21.609C15.4885 21.5961 15.4479 21.5912 15.4076 21.5945C15.3685 21.5937 15.3297 21.6007 15.2934 21.6153C15.2571 21.6298 15.2242 21.6514 15.1965 21.6789C15.1689 21.7065 15.1471 21.7393 15.1326 21.7754C15.118 21.8115 15.1109 21.8502 15.1118 21.8891V23.6073H17.5769V24.7364C17.576 24.7753 17.5831 24.8139 17.5977 24.8501C17.6122 24.8862 17.634 24.919 17.6616 24.9465C17.6893 24.974 17.7222 24.9957 17.7585 25.0102C17.7948 25.0247 17.8336 25.0317 17.8727 25.0309C17.9511 25.0309 18.0264 24.9999 18.0819 24.9446C18.1373 24.8894 18.1685 24.8145 18.1685 24.7364L18.1562 21.8829Z" fill="#FDB106"/>
<path d="M26.1864 24.7302C26.1864 24.652 26.1552 24.5771 26.0997 24.5219C26.0443 24.4667 25.969 24.4356 25.8906 24.4356H24.7566V21.5945H22.9817C22.9426 21.5937 22.9038 21.6007 22.8675 21.6152C22.8313 21.6297 22.7983 21.6514 22.7707 21.6789C22.743 21.7064 22.7213 21.7392 22.7067 21.7753C22.6921 21.8114 22.6851 21.8501 22.6859 21.889C22.6859 21.9672 22.7171 22.0421 22.7726 22.0973C22.828 22.1525 22.9033 22.1836 22.9817 22.1836H24.165V24.4418H22.9817C22.9 24.4418 22.8216 24.4741 22.7638 24.5316C22.706 24.5892 22.6736 24.6672 22.6736 24.7486C22.6736 24.8299 22.706 24.908 22.7638 24.9655C22.8216 25.0231 22.9 25.0554 22.9817 25.0554H25.8844C25.9265 25.0565 25.9683 25.0486 26.0071 25.0323C26.0459 25.016 26.0808 24.9917 26.1094 24.9609C26.138 24.9301 26.1596 24.8936 26.1729 24.8538C26.1862 24.814 26.1908 24.7719 26.1864 24.7302Z" fill="#FDB106"/>
<path d="M29.3417 21.5945H26.5808C26.5417 21.5937 26.5029 21.6007 26.4666 21.6152C26.4303 21.6297 26.3974 21.6514 26.3697 21.6789C26.3421 21.7064 26.3204 21.7392 26.3058 21.7753C26.2912 21.8114 26.2841 21.8501 26.285 21.889C26.285 21.9672 26.3161 22.0421 26.3716 22.0973C26.4271 22.1525 26.5023 22.1836 26.5808 22.1836H28.7501V23.0181H26.285V25.0308H29.0459C29.1276 25.0308 29.206 24.9985 29.2638 24.941C29.3216 24.8834 29.354 24.8054 29.354 24.724C29.354 24.6427 29.3216 24.5646 29.2638 24.5071C29.206 24.4495 29.1276 24.4172 29.0459 24.4172H26.8766V23.6011H29.3417V21.5945Z" fill="#FDB106"/>
<path d="M32.9408 21.5945H30.1983C30.1593 21.5937 30.1204 21.6007 30.0841 21.6152C30.0479 21.6297 30.0149 21.6514 29.9873 21.6789C29.9597 21.7064 29.9379 21.7392 29.9233 21.7753C29.9088 21.8114 29.9017 21.8501 29.9025 21.889C29.8991 21.9297 29.9042 21.9707 29.9176 22.0093C29.9309 22.0479 29.9521 22.0834 29.9799 22.1134C30.0078 22.1434 30.0415 22.1673 30.0791 22.1836C30.1167 22.1999 30.1573 22.2083 30.1983 22.2081H32.3676V23.0427H30.1983C30.1593 23.0418 30.1204 23.0489 30.0841 23.0634C30.0479 23.0779 30.0149 23.0996 29.9873 23.1271C29.9597 23.1546 29.9379 23.1874 29.9233 23.2235C29.9088 23.2596 29.9017 23.2983 29.9025 23.3372C29.9025 23.4153 29.9337 23.4903 29.9892 23.5455C30.0446 23.6007 30.1199 23.6318 30.1983 23.6318H32.3676V24.4663H30.1983C30.1166 24.4663 30.0382 24.4986 29.9804 24.5562C29.9227 24.6137 29.8902 24.6917 29.8902 24.7731C29.8902 24.8545 29.9227 24.9325 29.9804 24.9901C30.0382 25.0476 30.1166 25.0799 30.1983 25.0799H32.9593L32.9408 21.5945Z" fill="#FDB106"/>
<path d="M36.5398 21.8829C36.5398 21.8016 36.5074 21.7235 36.4496 21.666C36.3918 21.6084 36.3134 21.5761 36.2317 21.5761C36.15 21.5761 36.0716 21.6084 36.0138 21.666C35.956 21.7235 35.9236 21.8016 35.9236 21.8829V23.012H34.0747V21.8829C34.0747 21.8016 34.0423 21.7235 33.9845 21.666C33.9267 21.6084 33.8483 21.5761 33.7666 21.5761C33.6849 21.5761 33.6065 21.6084 33.5487 21.666C33.4909 21.7235 33.4584 21.8016 33.4584 21.8829V23.6011H35.9236V24.7302C35.9236 24.8116 35.956 24.8896 36.0138 24.9472C36.0716 25.0047 36.15 25.037 36.2317 25.037C36.3134 25.037 36.3918 25.0047 36.4496 24.9472C36.5074 24.8896 36.5398 24.8116 36.5398 24.7302V21.8829Z" fill="#FDB106"/>
<path d="M41.3222 26.6447H0.000671387V31.7011H41.3222V26.6447Z" fill="#FDB106"/>
<path d="M47.2939 22.5211H43.6393V27.5775H47.2939V22.5211Z" fill="#FDB106"/>
<path d="M53.0006 18.7043H49.7035V23.7607H53.0006V18.7043Z" fill="#FDB106"/>
</svg>
