<svg width="390" height="49" viewBox="0 0 390 49" fill="none" xmlns="http://www.w3.org/2000/svg">
<g clip-path="url(#clip0_72_335)">
<path d="M390 -4.32879e-08L-2.13365e-06 0.187815L0 49L390 48.8122L375.157 24.4765L390 -4.32879e-08Z" fill="url(#paint0_linear_72_335)"/>
</g>
<path d="M85.4658 20.842C89.3658 20.842 90.8998 23 90.8998 26.9C90.8998 30.8 89.3658 32.958 85.4658 32.958C81.5658 32.958 80.0318 30.8 80.0318 26.9C80.0318 23 81.5658 20.842 85.4658 20.842ZM75.2478 26.9C75.2478 33.66 78.9658 36.39 85.4658 36.39C91.9658 36.39 95.6838 33.66 95.6838 26.9C95.6838 20.14 91.9658 17.41 85.4658 17.41C78.9658 17.41 75.2478 20.14 75.2478 26.9ZM97.1249 17.8C96.4489 17.8 95.9289 18.32 95.9289 18.996V20.192C95.9289 20.868 96.4489 21.388 97.1249 21.388H102.793V34.83C102.793 35.48 103.339 36 103.989 36H106.381C107.031 36 107.577 35.48 107.577 34.83V21.388H113.245C113.921 21.388 114.441 20.868 114.441 20.192V18.996C114.441 18.32 113.921 17.8 113.245 17.8H97.1249ZM137.296 29.084V29.552C137.296 31.97 136.282 32.516 134.332 32.516H131.992C130.692 32.516 129.782 32.126 129.392 31.476C128.872 30.618 128.404 30.28 127.676 30.28H126.168C125.83 30.28 124.868 30.514 124.868 31.684C124.868 34.206 127.754 36.104 131.55 36.104H134.774C139.324 36.104 142.08 34.596 142.08 29.552V23.936C142.08 19.152 139.324 17.696 134.722 17.696H131.94C127.338 17.696 124.582 19.152 124.582 23.39C124.582 27.628 127.338 29.084 131.94 29.084H137.296ZM132.382 25.496C130.38 25.496 129.366 25.028 129.366 23.39C129.366 21.752 130.38 21.284 132.382 21.284H134.28C136.282 21.284 137.296 21.752 137.296 23.936V25.496H132.382ZM153.472 21.284C156.15 21.284 158.256 22.61 158.256 26.9C158.256 31.19 156.15 32.516 153.472 32.516C150.794 32.516 148.688 31.19 148.688 26.9C148.688 22.61 150.794 21.284 153.472 21.284ZM153.03 17.696C147.986 17.696 143.904 19.906 143.904 26.9C143.904 33.894 147.986 36.104 153.03 36.104H153.914C158.958 36.104 163.04 33.894 163.04 26.9C163.04 19.906 158.958 17.696 153.914 17.696H153.03ZM175.429 36V32.464H173.167V30.774H175.429V28.46H173.167V26.484H175.429V17.436H180.317C182.588 17.436 184.269 17.8953 185.361 18.814C186.471 19.7327 187.025 21.0673 187.025 22.818C187.025 24.586 186.427 25.9727 185.231 26.978C184.035 27.966 182.276 28.46 179.953 28.46H177.769V30.774H182.059V32.464H177.769V36H175.429ZM179.615 26.484C181.193 26.484 182.415 26.224 183.281 25.704C184.165 25.184 184.607 24.248 184.607 22.896C184.607 21.7173 184.243 20.842 183.515 20.27C182.787 19.698 181.652 19.412 180.109 19.412H177.769V26.484H179.615ZM198.95 34.804C198.95 35.454 199.47 36 200.146 36H211.066C214.628 36 217.8 34.154 217.8 30.54C217.8 28.824 217.072 27.238 215.356 26.328C216.63 25.288 217.072 24.274 217.072 22.974C217.072 19.204 213.718 17.8 210.468 17.8H200.146C199.47 17.8 198.95 18.346 198.95 18.996V34.804ZM210.52 21.232C211.586 21.232 212.288 21.882 212.288 23.052C212.288 24.222 211.586 24.872 210.52 24.872H203.734V21.232H210.52ZM210.988 28.2C212.34 28.2 213.016 29.084 213.016 30.384C213.016 31.684 212.34 32.568 210.988 32.568H203.734V28.2H210.988ZM228.455 26.9C228.455 33.218 231.653 36.104 237.867 36.104H240.961C244.497 36.104 248.267 34.206 248.267 30.514C248.267 29.344 247.305 29.11 246.967 29.11H245.459C244.731 29.11 244.133 29.448 243.639 30.514C243.067 31.736 242.079 32.516 240.519 32.516H237.997C234.253 32.516 233.239 31.138 233.239 26.9C233.239 22.662 234.253 21.284 237.997 21.284H240.259C241.819 21.284 242.807 22.064 243.379 23.286C243.873 24.352 244.471 24.69 245.199 24.69H246.707C247.045 24.69 248.007 24.456 248.007 23.286C248.007 19.594 244.237 17.696 240.701 17.696H237.867C231.653 17.696 228.455 20.582 228.455 26.9ZM253.671 32.178C252.995 32.178 252.475 32.698 252.475 33.374V34.804C252.475 35.454 252.995 36 253.671 36H256.739C261.133 36 263.135 33.868 264.201 30.8L268.335 18.944C268.543 18.32 268.179 17.8 267.529 17.8H264.955C264.305 17.8 263.629 18.216 263.369 18.97L261.081 25.522H259.521C257.285 25.522 256.115 24.404 255.309 22.48L253.853 18.944C253.593 18.294 252.943 17.8 252.163 17.8H249.485C248.835 17.8 248.497 18.32 248.783 18.996L250.785 23.572C252.423 27.316 254.425 29.11 258.845 29.11H259.937C259.313 31.32 258.143 32.412 256.479 32.412H256.219C255.465 32.412 254.789 32.178 254.087 32.178H253.671ZM270.137 17.8C269.461 17.8 268.941 18.32 268.941 18.996V20.192C268.941 20.868 269.461 21.388 270.137 21.388H275.805V34.83C275.805 35.48 276.351 36 277.001 36H279.393C280.043 36 280.589 35.48 280.589 34.83V21.388H286.257C286.933 21.388 287.453 20.868 287.453 20.192V18.996C287.453 18.32 286.933 17.8 286.257 17.8H270.137ZM293.132 36C293.782 36 294.328 35.48 294.328 34.83V28.668H297.058C298.696 28.668 299.658 29.734 300.62 31.268L302.856 34.804C303.272 35.48 304.156 36 304.806 36H307.718C308.394 36 308.576 35.48 308.16 34.804L304.988 29.76C304.26 28.642 302.96 27.056 301.712 26.796C303.48 26.38 304.338 25.158 304.988 23.988L307.744 18.996C308.134 18.294 308.004 17.774 307.354 17.774H304.416C303.766 17.774 303.064 18.164 302.596 18.996L300.62 22.506C299.606 24.326 298.54 25.08 297.058 25.08H294.328V18.996C294.328 18.32 293.782 17.774 293.132 17.774H290.74C290.09 17.774 289.544 18.32 289.544 18.996V34.778C289.544 35.454 290.09 36 290.74 36H293.132ZM327.528 36C328.178 36 328.724 35.454 328.724 34.804V18.996C328.724 18.346 328.204 17.8 327.554 17.8H323.81C323.186 17.8 322.432 18.372 322.068 18.996L314.84 31.684V18.97C314.84 18.32 314.294 17.8 313.644 17.8H311.408C310.732 17.8 310.212 18.32 310.212 18.996V34.804C310.212 35.454 310.732 36 311.408 36H315.62C316.296 36 317.102 35.454 317.466 34.804L324.096 23.026V34.804C324.096 35.454 324.642 36 325.292 36H327.528Z" fill="white"/>
<defs>
<linearGradient id="paint0_linear_72_335" x1="390" y1="49" x2="390" y2="-1.78865e-06" gradientUnits="userSpaceOnUse">
<stop stop-color="#FFBB24"/>
<stop offset="1" stop-color="#FDB003"/>
</linearGradient>
<clipPath id="clip0_72_335">
<rect width="49" height="390" fill="white" transform="translate(0 49) rotate(-90)"/>
</clipPath>
</defs>
</svg>
