<svg width="70" height="70" viewBox="0 0 70 70" fill="none" xmlns="http://www.w3.org/2000/svg">
<circle cx="35" cy="35" r="35" fill="#FDB106"/>
<mask id="mask0_927_385" style="mask-type:alpha" maskUnits="userSpaceOnUse" x="0" y="0" width="70" height="70">
<circle cx="35" cy="35" r="35" fill="#FDB106"/>
</mask>
<g mask="url(#mask0_927_385)">
<path opacity="0.18" d="M72.2427 37.9657L38.1966 3.60303L35.9608 25.8197L33.489 26.676L30.3355 26.2879L24.3197 27.6463L22.8363 29.8898L21.253 46.992L23.9449 62.5106C25.3173 64.0942 28.4105 67.7046 29.804 69.4782C31.1975 71.2518 42.4195 71.5896 47.8563 71.5368L67.3338 58.3934L72.2427 37.9657Z" fill="#333331"/>
</g>
<path d="M37.2574 2.63932C36.5609 1.9429 35.081 1.7688 33.7753 1.7688C32.7597 1.91389 30.9025 2.11701 29.8579 3.50984C28.5521 5.25089 28.5521 8.00782 28.5521 11.7798C28.5521 14.9137 30.003 17.4382 30.7284 18.3087C30.8735 18.5989 31.1637 19.2663 31.1637 19.6145C31.1637 20.0498 32.9047 23.5317 33.34 24.4023L33.34 24.4024C33.6882 25.0988 33.4851 25.8533 33.34 26.1434L32.0342 24.8377L28.1169 26.5787C27.2463 26.2885 25.7665 25.8823 25.07 26.5787C24.1995 27.4492 21.1527 27.4492 18.9764 29.6255C16.8001 31.8018 18.1059 34.4134 18.5411 35.7192C18.8893 36.7638 20.1371 37.6053 20.7174 37.8955C19.8469 37.4602 18.5411 37.4602 17.2353 37.8955C15.5836 38.4461 15.059 39.6365 15.059 42.2481C15.059 44.3374 16.5459 46.4992 18.9764 47.036H16.8001C16.3648 47.9065 16.8001 49.7346 16.8001 50.0828C16.8001 50.5181 18.1059 53.5649 18.9764 54.4354C19.6728 55.1318 20.8625 55.8863 21.5879 56.6117L20.2822 57.047C20.8625 58.2077 22.0232 60.6161 22.0232 60.9643C22.0232 61.3996 23.329 62.2701 24.1995 62.7054C25.07 63.1407 28.5521 63.5759 29.8579 64.0112C31.1637 64.4464 33.34 65.317 34.2105 65.317H38.1279C38.5631 65.317 40.2883 64.5413 41.1589 64.106C42.0294 63.6708 43.7855 62.8617 44.2207 62.4264C44.656 61.9912 45.603 60.4134 45.603 59.5429C45.603 58.8465 45.2371 57.6273 45.0921 57.047C44.3666 57.6273 42.6579 58.7339 41.9615 59.0821C41.2651 59.4303 39.4982 59.4389 36.0161 59.4389C33.2304 59.4389 27.6816 57.3372 25.5053 56.1765C26.666 56.6117 29.1615 57.4823 29.8579 57.4823C30.7284 57.4823 33.34 57.9175 35.081 57.9175C36.8221 57.9175 40.7394 57.9175 42.0452 57.4823C43.351 57.047 45.8609 55.8917 45.9626 53.1296C46.0537 50.6543 45.248 49.8037 44.8127 49.0783C44.3775 49.3684 43.5237 49.9958 42.8272 50.344C41.7402 50.8875 40.3893 50.9017 38.9449 51.0556H38.9448C36.2741 51.0556 32.942 51.0556 30.2932 50.5181C29.214 50.2991 25.5053 48.0516 23.7642 47.036C25.7955 47.7614 30.032 49.2123 30.7284 49.2123C31.599 49.2123 37.1231 49.3408 39.4337 49.2123C40.7374 49.1398 42.4805 48.777 43.351 48.3418C44.2215 47.9065 45.3589 47.1042 45.2869 44.653C45.1779 40.9423 42.9158 40.5071 42.4805 40.5071C42.0452 40.5071 38.1279 40.9423 37.6926 40.9423C35.0159 40.9423 32.6126 39.6365 29.8579 39.6365C29.5097 39.6365 26.8111 38.766 25.5053 38.3308C26.666 38.4758 29.1615 38.766 29.8579 38.766C30.7284 38.766 31.1637 38.766 32.9047 39.2013C34.6458 39.6365 35.5163 39.6365 37.2574 39.6365H41.61C42.4805 39.6365 43.351 38.766 44.2215 38.3308C45.0921 37.8955 45.0921 34.4134 45.0921 33.5429C45.0921 32.6724 43.351 30.9313 42.4805 30.496C41.61 30.0608 40.7394 29.6255 38.5631 29.1903C36.3868 28.755 35.081 28.3197 32.9047 27.8845C31.1637 27.5363 27.8267 27.7394 26.3758 27.8845C27.3914 27.5943 29.7709 27.014 31.1637 27.014C32.9047 27.014 34.2105 27.014 38.1279 27.4492C42.0452 27.8845 44.2215 29.6255 44.6568 30.0608C45.0921 30.496 46.8331 33.5429 46.8331 35.7192C46.8331 37.4602 45.6724 39.0562 45.0921 39.6365C45.2371 39.9267 45.6144 40.5941 45.9626 40.9423C46.3108 41.2905 46.688 42.8285 46.8331 43.5539C46.9782 43.1186 47.3554 41.8999 47.7036 40.5071C48.6247 36.8228 48.5742 36.1544 48.1389 33.9781C47.7036 31.8018 45.9626 28.3197 44.6568 26.5787C43.351 24.8377 41.61 20.485 41.1747 18.3087C40.7394 16.1324 41.2274 13.9468 40.7394 11.3445C39.4337 4.38037 38.1279 3.50984 37.2574 2.63932Z" fill="white"/>
</svg>
