<svg width="30" height="30" viewBox="0 0 30 30" fill="none" xmlns="http://www.w3.org/2000/svg">
<g clip-path="url(#clip0_72_350)">
<path d="M16.7 5.33996H6.47998C6.29091 5.32376 6.10053 5.34702 5.92091 5.40826C5.7413 5.46951 5.57637 5.5674 5.43657 5.69573C5.29678 5.82406 5.18517 5.98003 5.10882 6.15376C5.03247 6.32749 4.99304 6.51519 4.99304 6.70496C4.99304 6.89473 5.03247 7.08243 5.10882 7.25616C5.18517 7.42989 5.29678 7.58586 5.43657 7.7142C5.57637 7.84253 5.7413 7.94042 5.92091 8.00166C6.10053 8.0629 6.29091 8.08616 6.47998 8.06996H16.7C16.8891 8.08616 17.0794 8.0629 17.2591 8.00166C17.4387 7.94042 17.6036 7.84253 17.7434 7.7142C17.8832 7.58586 17.9948 7.42989 18.0711 7.25616C18.1475 7.08243 18.1869 6.89473 18.1869 6.70496C18.1869 6.51519 18.1475 6.32749 18.0711 6.15376C17.9948 5.98003 17.8832 5.82406 17.7434 5.69573C17.6036 5.5674 17.4387 5.46951 17.2591 5.40826C17.0794 5.34702 16.8891 5.32376 16.7 5.33996V5.33996ZM18.07 11.82C18.07 11.4566 17.9256 11.1081 17.6687 10.8512C17.4118 10.5943 17.0633 10.45 16.7 10.45H6.47998C6.29091 10.4338 6.10053 10.457 5.92091 10.5183C5.7413 10.5795 5.57637 10.6774 5.43657 10.8057C5.29678 10.9341 5.18517 11.09 5.10882 11.2638C5.03247 11.4375 4.99304 11.6252 4.99304 11.815C4.99304 12.0047 5.03247 12.1924 5.10882 12.3662C5.18517 12.5399 5.29678 12.6959 5.43657 12.8242C5.57637 12.9525 5.7413 13.0504 5.92091 13.1117C6.10053 13.1729 6.29091 13.1962 6.47998 13.18H16.7C16.8794 13.1813 17.0573 13.1471 17.2235 13.0793C17.3897 13.0116 17.5408 12.9116 17.6681 12.7852C17.7955 12.6588 17.8965 12.5084 17.9655 12.3427C18.0345 12.1771 18.07 11.9994 18.07 11.82V11.82ZM11.59 18.3C11.9318 18.2707 12.2503 18.1142 12.4823 17.8614C12.7143 17.6087 12.843 17.2781 12.843 16.935C12.843 16.5919 12.7143 16.2612 12.4823 16.0085C12.2503 15.7557 11.9318 15.5992 11.59 15.57H6.47998C6.29091 15.5538 6.10053 15.577 5.92091 15.6383C5.7413 15.6995 5.57637 15.7974 5.43657 15.9257C5.29678 16.0541 5.18517 16.21 5.10882 16.3838C5.03247 16.5575 4.99304 16.7452 4.99304 16.935C4.99304 17.1247 5.03247 17.3124 5.10882 17.4862C5.18517 17.6599 5.29678 17.8159 5.43657 17.9442C5.57637 18.0725 5.7413 18.1704 5.92091 18.2317C6.10053 18.2929 6.29091 18.3162 6.47998 18.3H11.59Z" fill="#333331"/>
<path d="M21.88 22.93L20.45 23.88V27.27H2.73V2.73H20.45V8.12L23.18 3.39V1.39C23.184 1.20889 23.1518 1.02881 23.0852 0.860333C23.0187 0.691852 22.9191 0.538365 22.7924 0.408882C22.6657 0.2794 22.5145 0.176532 22.3475 0.106317C22.1805 0.0361023 22.0012 -4.40384e-05 21.82 4.02651e-08H1.36C0.999306 4.02651e-08 0.653384 0.143285 0.398335 0.398335C0.143285 0.653384 0 0.999306 0 1.36L0 28.64C0 29.0007 0.143285 29.3466 0.398335 29.6017C0.653384 29.8567 0.999306 30 1.36 30H21.82C22.1807 30 22.5266 29.8567 22.7817 29.6017C23.0367 29.3466 23.18 29.0007 23.18 28.64V21.12L22.53 22.25C22.3705 22.5251 22.1476 22.7582 21.88 22.93V22.93Z" fill="#333331"/>
<path d="M30 6.32011C29.8191 5.82563 29.5397 5.37302 29.1788 4.9897C28.8178 4.60639 28.3828 4.30034 27.9 4.09011C27.471 3.78222 26.9837 3.56492 26.4679 3.45145C25.9522 3.33798 25.4187 3.33072 24.9 3.43011C24.7377 3.47986 24.6014 3.59112 24.52 3.74011L16 18.5001C15.9492 18.5927 15.9186 18.6949 15.91 18.8001L15.6 24.1201C15.5952 24.2395 15.6223 24.358 15.6787 24.4634C15.735 24.5687 15.8186 24.6571 15.9206 24.7193C16.0226 24.7815 16.1394 24.8153 16.2588 24.8172C16.3783 24.8191 16.4961 24.7891 16.6 24.7301L21.05 21.7901C21.142 21.7382 21.2181 21.6621 21.27 21.5701L29.87 6.80011C29.9733 6.66271 30.0199 6.49086 30 6.32011V6.32011ZM18.4 22.3801C18.1621 22.1852 17.9079 22.0112 17.64 21.8601C17.3746 21.7046 17.097 21.5708 16.81 21.4601L16.91 19.8601C17.4593 19.9515 17.9857 20.1485 18.46 20.4401C18.944 20.6883 19.3753 21.0279 19.73 21.4401L18.4 22.3801ZM9.51002 24.6001C9.51002 24.8701 9.87002 24.9501 10.08 25.0401C10.29 25.1301 10.53 24.9701 10.7 24.8801C11.7 24.3801 13.15 24.9701 14.26 24.9701C14.3755 24.9469 14.4794 24.8844 14.5541 24.7933C14.6287 24.7021 14.6695 24.5879 14.6695 24.4701C14.6695 24.3523 14.6287 24.2381 14.5541 24.147C14.4794 24.0558 14.3755 23.9933 14.26 23.9701C13.0424 23.8255 11.8145 23.7853 10.59 23.8501C10.5797 23.7392 10.5419 23.6327 10.48 23.5401C10.4217 23.3663 10.3054 23.2179 10.1506 23.1196C9.99592 23.0213 9.81213 22.9791 9.63002 23.0001C9.6128 22.9506 9.58927 22.9036 9.56002 22.8601C9.52705 22.8005 9.48124 22.7489 9.4259 22.7091C9.37056 22.6693 9.30707 22.6423 9.24002 22.6301C9.43294 22.3714 9.56542 22.0727 9.62772 21.756C9.69002 21.4393 9.68055 21.1127 9.60002 20.8001C9.55555 20.7231 9.49133 20.6593 9.41399 20.6153C9.33664 20.5714 9.24897 20.5489 9.16002 20.5501C8.47002 20.5501 7.89002 21.2401 7.45002 21.6701C6.37001 22.7693 5.3676 23.9421 4.45002 25.1801C4.04002 25.7101 4.93002 26.1801 5.33002 25.7001C6.16386 24.6324 7.05517 23.6109 8.00002 22.6401C7.77002 23.0101 7.53002 23.3801 7.28002 23.7301C6.91002 24.3001 7.78002 24.7801 8.16002 24.2501C8.24368 24.1193 8.35667 24.0097 8.49002 23.9301C8.49002 23.9901 8.44002 24.0501 8.41002 24.1201L8.35002 24.2401C8.12002 24.8101 8.98002 25.0701 9.29002 24.6301C9.36945 24.5194 9.43968 24.4023 9.50002 24.2801C9.4948 24.3869 9.49814 24.4939 9.51002 24.6001Z" fill="#333331"/>
</g>
<defs>
<clipPath id="clip0_72_350">
<rect width="29.96" height="30" fill="white"/>
</clipPath>
</defs>
</svg>
