<svg width="33" height="30" viewBox="0 0 33 30" fill="none" xmlns="http://www.w3.org/2000/svg">
<path d="M32.39 12.6701C32.3333 12.5531 32.2454 12.4538 32.1361 12.3833C32.0267 12.3127 31.9001 12.2736 31.77 12.2701H29.77C29.1326 8.80734 27.2973 5.67914 24.5855 3.43331C21.8738 1.18749 18.4584 -0.0328281 14.9375 -0.0139442C11.4165 0.00493962 8.01445 1.26182 5.32694 3.5366C2.63943 5.81139 0.8378 8.95909 0.237516 12.4285C-0.362768 15.898 0.276558 19.468 2.04355 22.5135C3.81053 25.559 6.59256 27.8859 9.90247 29.0866C13.2124 30.2874 16.8392 30.2855 20.1479 29.0814C23.4566 27.8772 26.2362 25.5475 28 22.5001C28.0893 22.3452 28.1472 22.1741 28.1704 21.9968C28.1936 21.8195 28.1817 21.6393 28.1353 21.4666C28.0888 21.2939 28.0088 21.132 27.8998 20.9902C27.7908 20.8484 27.655 20.7294 27.5 20.6401C27.3451 20.5508 27.174 20.4929 26.9967 20.4697C26.8194 20.4465 26.6392 20.4585 26.4665 20.5049C26.2938 20.5513 26.1319 20.6313 25.9901 20.7403C25.8483 20.8493 25.7293 20.9852 25.64 21.1401C24.2033 23.6139 21.948 25.5084 19.2634 26.4967C16.5788 27.4849 13.6334 27.5049 10.9356 26.5532C8.23786 25.6014 5.95704 23.7377 4.48686 21.2837C3.01668 18.8296 2.44941 15.9393 2.88296 13.1116C3.31652 10.284 4.72369 7.69637 6.86159 5.79555C8.99948 3.89472 11.7339 2.79994 14.5929 2.70019C17.4519 2.60043 20.256 3.50196 22.5212 5.24915C24.7863 6.99635 26.3704 9.47956 27 12.2701H25C24.87 12.2736 24.7433 12.3127 24.634 12.3833C24.5247 12.4538 24.4368 12.5531 24.38 12.6701C24.3269 12.7873 24.308 12.9172 24.3257 13.0446C24.3435 13.1721 24.3969 13.2919 24.48 13.3901L27.89 17.4801C27.9529 17.5506 28.0299 17.607 28.1161 17.6456C28.2023 17.6842 28.2956 17.7042 28.39 17.7042C28.4845 17.7042 28.5778 17.6842 28.664 17.6456C28.7501 17.607 28.8272 17.5506 28.89 17.4801L32.3 13.3901C32.3815 13.2909 32.4332 13.1706 32.4491 13.0431C32.465 12.9157 32.4445 12.7864 32.39 12.6701Z" fill="#333331"/>
<path d="M15 3.41016C14.6393 3.41016 14.2934 3.55344 14.0383 3.80849C13.7833 4.06354 13.64 4.40946 13.64 4.77016V13.0502C13.3287 13.2707 13.0752 13.5631 12.9011 13.9026C12.727 14.2421 12.6374 14.6186 12.64 15.0002C12.6425 15.6281 12.8911 16.23 13.3322 16.6768C13.7734 17.1236 14.3722 17.3797 15 17.3902C15.3458 17.3849 15.6866 17.3065 16 17.1602L20.74 19.8902C20.9452 20.0141 21.1803 20.0797 21.42 20.0802C21.7191 20.0767 22.0089 19.9754 22.245 19.7918C22.4812 19.6082 22.6508 19.3523 22.7278 19.0632C22.8049 18.7742 22.7853 18.4679 22.6719 18.1911C22.5585 17.9142 22.3577 17.6821 22.1 17.5302L17.36 14.7902C17.3294 14.445 17.2242 14.1106 17.0515 13.8101C16.8788 13.5097 16.6429 13.2503 16.36 13.0502V4.77016C16.3548 4.41107 16.2099 4.06814 15.956 3.81421C15.702 3.56027 15.3591 3.41532 15 3.41016ZM15 16.0002C14.8022 16.0002 14.6089 15.9415 14.4444 15.8316C14.28 15.7217 14.1518 15.5656 14.0761 15.3828C14.0004 15.2001 13.9806 14.999 14.0192 14.8051C14.0578 14.6111 14.153 14.4329 14.2929 14.293C14.4328 14.1532 14.6109 14.058 14.8049 14.0194C14.9989 13.9808 15.2 14.0006 15.3827 14.0763C15.5654 14.152 15.7216 14.2801 15.8315 14.4446C15.9414 14.609 16 14.8024 16 15.0002C16 15.2654 15.8947 15.5197 15.7071 15.7073C15.5196 15.8948 15.2652 16.0002 15 16.0002Z" fill="#333331"/>
</svg>
