<svg width="220" height="27" viewBox="0 0 220 27" fill="none" xmlns="http://www.w3.org/2000/svg">
<path d="M0.092804 26.1652H13.9809L17.0815 13.075H3.194L0.092804 26.1652Z" fill="#FDB106"/>
<path d="M17.0815 13.0923H30.9696L34.0708 0.00216675H20.1827L17.0815 13.0923Z" fill="#FDB106"/>
<path d="M34.0691 26.1641L40.1855 0H55.6256C61.2448 0 63.6579 3.37392 63.6579 6.51186C63.6579 9.8469 60.704 12.9065 57.4166 13.1798C60.1219 13.8872 61.3697 16.1611 61.3697 18.3573C61.3697 21.8095 58.8305 26.1641 51.5052 26.1641H34.0691ZM53.004 17.7298C53.004 16.8664 52.3801 16.2389 51.4221 16.2389H44.8055L44.0138 19.5739H50.6321C52.0483 19.5745 53.004 18.8282 53.004 17.7298ZM54.7118 7.88508C54.7118 7.17768 54.2122 6.58962 53.2131 6.58962H47.1356L46.3455 9.64926H52.6717C54.2541 9.64926 54.7118 8.70804 54.7118 7.88508Z" fill="white"/>
<path d="M65.3698 17.064C65.3698 16.7497 65.4941 15.808 65.5772 15.417L69.1986 0H77.7305L74.1509 15.2194C74.1096 15.4165 74.0678 15.7685 74.0678 16.1611C74.1091 17.847 75.5666 19.7305 78.7296 19.7305C82.1413 19.7305 83.9306 17.7298 84.5126 15.2194L88.0922 0H96.6241L93.0027 15.3776C91.5475 21.6923 87.6757 26.635 78.7291 26.635C69.6563 26.635 65.3698 22.673 65.3698 17.064Z" fill="white"/>
<path d="M102.415 26.1641L104.829 15.7685L98.128 0H107.159L110.239 8.82522L117.397 0H127.261L113.235 15.7685L110.822 26.1641H102.415Z" fill="white"/>
<path d="M128.596 26.1641L133.09 6.90444H125.641L127.264 0H150.529L148.906 6.90444H141.497L137.003 26.1641H128.596Z" fill="#FDB106"/>
<path d="M167.781 26.1641L167.488 23.1044H157.501L155.793 26.1641H145.848L162.203 0H172.774L176.894 26.1641H167.781ZM166.074 7.76628L161.371 16.2005H166.864L166.074 7.76628Z" fill="#FDB106"/>
<path d="M192.688 26.1641L189.108 18.6327L182.534 26.1641H172.213L184.99 12.2769L178.953 0H188.401L191.523 6.98274L197.308 0H207.67L195.686 13.1798L202.178 26.1641H192.688Z" fill="#FDB106"/>
<path d="M205.436 26.1641L211.553 0H219.96L213.843 26.1641H205.436Z" fill="#FDB106"/>
</svg>
