<svg width="52" height="51" viewBox="0 0 52 51" fill="none" xmlns="http://www.w3.org/2000/svg">
<circle cx="25.9999" cy="25.2861" r="23.2236" fill="#CC0001" stroke="#FDB106" stroke-width="4"/>
<path fill-rule="evenodd" clip-rule="evenodd" d="M15.2596 14.5457C16.5028 13.3025 18.5185 13.3025 19.7618 14.5457L26.1517 20.9356L32.5416 14.5457C33.7849 13.3025 35.8006 13.3025 37.0438 14.5457C38.2871 15.789 38.2871 17.8047 37.0438 19.0479L30.6539 25.4378L37.0438 31.8278C38.2871 33.071 38.2871 35.0867 37.0438 36.33C35.8006 37.5732 33.7849 37.5732 32.5416 36.33L26.1517 29.94L19.7618 36.33C18.5185 37.5732 16.5028 37.5732 15.2596 36.33C14.0163 35.0867 14.0163 33.071 15.2596 31.8278L21.6495 25.4378L15.2596 19.0479C14.0163 17.8047 14.0163 15.789 15.2596 14.5457Z" fill="white"/>
</svg>
