<svg width="395" height="450" viewBox="0 0 395 450" fill="none" xmlns="http://www.w3.org/2000/svg">
<g filter="url(#filter0_d_62_532)">
<rect x="30" y="30" width="335" height="390" fill="white"/>
<rect x="31" y="31" width="333" height="388" stroke="#FDB106" stroke-width="2" stroke-dasharray="8 8"/>
</g>
<circle cx="59.5" cy="148.5" r="3" stroke="#FDB106" stroke-width="3"/>
<path opacity="0.66" d="M87.065 153H85.07L84.335 151.08H79.745L79.01 153H77.015L80.945 142.995H83.135L87.065 153ZM83.84 149.535L82.04 144.765L80.24 149.535H83.84ZM92.5528 153H88.1128V145.755H92.4478C93.1178 145.755 93.6428 145.93 94.0228 146.28C94.4028 146.63 94.5928 147.075 94.5928 147.615C94.5928 148.035 94.4778 148.39 94.2478 148.68C94.0178 148.97 93.7278 149.165 93.3778 149.265C93.7678 149.355 94.0928 149.57 94.3528 149.91C94.6128 150.24 94.7428 150.615 94.7428 151.035C94.7428 151.615 94.5478 152.09 94.1578 152.46C93.7778 152.82 93.2428 153 92.5528 153ZM92.2228 151.62C92.5028 151.62 92.7228 151.55 92.8828 151.41C93.0428 151.26 93.1228 151.06 93.1228 150.81C93.1228 150.58 93.0428 150.385 92.8828 150.225C92.7228 150.065 92.5028 149.985 92.2228 149.985H89.6878V151.62H92.2228ZM92.1778 148.605C92.4278 148.605 92.6228 148.54 92.7628 148.41C92.9128 148.27 92.9878 148.095 92.9878 147.885C92.9878 147.655 92.9128 147.475 92.7628 147.345C92.6228 147.205 92.4278 147.135 92.1778 147.135H89.6878V148.605H92.1778ZM99.5918 153H98.0168V147.135H95.9468V145.755H101.677V147.135H99.5918V153ZM106.236 153.18C105.116 153.18 104.216 152.815 103.536 152.085C102.856 151.345 102.516 150.44 102.516 149.37C102.516 148.3 102.856 147.4 103.536 146.67C104.216 145.94 105.116 145.575 106.236 145.575C107.366 145.575 108.271 145.94 108.951 146.67C109.631 147.4 109.971 148.3 109.971 149.37C109.971 150.45 109.631 151.355 108.951 152.085C108.271 152.815 107.366 153.18 106.236 153.18ZM106.236 151.785C106.886 151.785 107.396 151.555 107.766 151.095C108.146 150.625 108.336 150.05 108.336 149.37C108.336 148.7 108.146 148.135 107.766 147.675C107.396 147.205 106.886 146.97 106.236 146.97C105.596 146.97 105.086 147.205 104.706 147.675C104.336 148.135 104.151 148.7 104.151 149.37C104.151 150.05 104.336 150.625 104.706 151.095C105.086 151.555 105.596 151.785 106.236 151.785ZM119.857 153H115.417V145.755H119.752C120.422 145.755 120.947 145.93 121.327 146.28C121.707 146.63 121.897 147.075 121.897 147.615C121.897 148.035 121.782 148.39 121.552 148.68C121.322 148.97 121.032 149.165 120.682 149.265C121.072 149.355 121.397 149.57 121.657 149.91C121.917 150.24 122.047 150.615 122.047 151.035C122.047 151.615 121.852 152.09 121.462 152.46C121.082 152.82 120.547 153 119.857 153ZM119.527 151.62C119.807 151.62 120.027 151.55 120.187 151.41C120.347 151.26 120.427 151.06 120.427 150.81C120.427 150.58 120.347 150.385 120.187 150.225C120.027 150.065 119.807 149.985 119.527 149.985H116.992V151.62H119.527ZM119.482 148.605C119.732 148.605 119.927 148.54 120.067 148.41C120.217 148.27 120.292 148.095 120.292 147.885C120.292 147.655 120.217 147.475 120.067 147.345C119.927 147.205 119.732 147.135 119.482 147.135H116.992V148.605H119.482ZM127.104 153.18V151.89C127.414 151.89 127.659 151.69 127.839 151.29C128.029 150.89 128.184 150.22 128.304 149.28L128.739 145.755H134.334V153H132.759V147.135H130.134L129.879 149.46C129.739 150.76 129.444 151.705 128.994 152.295C128.544 152.885 127.914 153.18 127.104 153.18ZM137.894 153H136.379V145.755H137.954V150.63L141.284 145.755H142.859V153H141.284V147.99L137.894 153ZM144.65 145.755H146.225V147.705C146.225 148.245 146.36 148.625 146.63 148.845C146.91 149.065 147.35 149.175 147.95 149.175C148.6 149.175 149.13 149.085 149.54 148.905V145.755H151.115V153H149.54V150.18C149.02 150.44 148.325 150.57 147.455 150.57C146.465 150.57 145.75 150.38 145.31 150C144.87 149.62 144.65 149.045 144.65 148.275V145.755ZM154.727 153H153.152V145.755H154.727V148.605H158.057V145.755H159.632V153H158.057V149.985H154.727V153ZM164.947 153.18C163.827 153.18 162.927 152.815 162.247 152.085C161.567 151.345 161.227 150.44 161.227 149.37C161.227 148.3 161.567 147.4 162.247 146.67C162.927 145.94 163.827 145.575 164.947 145.575C166.077 145.575 166.982 145.94 167.662 146.67C168.342 147.4 168.682 148.3 168.682 149.37C168.682 150.45 168.342 151.355 167.662 152.085C166.982 152.815 166.077 153.18 164.947 153.18ZM164.947 151.785C165.597 151.785 166.107 151.555 166.477 151.095C166.857 150.625 167.047 150.05 167.047 149.37C167.047 148.7 166.857 148.135 166.477 147.675C166.107 147.205 165.597 146.97 164.947 146.97C164.307 146.97 163.797 147.205 163.417 147.675C163.047 148.135 162.862 148.7 162.862 149.37C162.862 150.05 163.047 150.625 163.417 151.095C163.797 151.555 164.307 151.785 164.947 151.785ZM171.791 153H170.276V145.755H171.851V150.63L175.181 145.755H176.756V153H175.181V147.99L171.791 153ZM176.141 143.67C175.491 144.55 174.616 144.99 173.516 144.99C172.426 144.99 171.546 144.55 170.876 143.67L171.596 143.07C172.076 143.73 172.716 144.06 173.516 144.06C174.316 144.06 174.951 143.73 175.421 143.07L176.141 143.67ZM185.954 153.18C184.854 153.18 183.954 152.825 183.254 152.115C182.554 151.395 182.204 150.48 182.204 149.37C182.204 148.27 182.554 147.365 183.254 146.655C183.954 145.935 184.854 145.575 185.954 145.575C187.164 145.575 188.089 146.005 188.729 146.865L187.694 147.825C187.294 147.255 186.739 146.97 186.029 146.97C185.369 146.97 184.839 147.195 184.439 147.645C184.039 148.085 183.839 148.66 183.839 149.37C183.839 150.08 184.039 150.66 184.439 151.11C184.839 151.56 185.369 151.785 186.029 151.785C186.719 151.785 187.274 151.5 187.694 150.93L188.729 151.89C188.089 152.75 187.164 153.18 185.954 153.18ZM193.38 153.18C192.26 153.18 191.36 152.815 190.68 152.085C190 151.345 189.66 150.44 189.66 149.37C189.66 148.3 190 147.4 190.68 146.67C191.36 145.94 192.26 145.575 193.38 145.575C194.51 145.575 195.415 145.94 196.095 146.67C196.775 147.4 197.115 148.3 197.115 149.37C197.115 150.45 196.775 151.355 196.095 152.085C195.415 152.815 194.51 153.18 193.38 153.18ZM193.38 151.785C194.03 151.785 194.54 151.555 194.91 151.095C195.29 150.625 195.48 150.05 195.48 149.37C195.48 148.7 195.29 148.135 194.91 147.675C194.54 147.205 194.03 146.97 193.38 146.97C192.74 146.97 192.23 147.205 191.85 147.675C191.48 148.135 191.295 148.7 191.295 149.37C191.295 150.05 191.48 150.625 191.85 151.095C192.23 151.555 192.74 151.785 193.38 151.785ZM201.978 151.785C202.628 151.785 203.138 151.55 203.508 151.08C203.888 150.61 204.078 150.03 204.078 149.34C204.078 148.68 203.888 148.12 203.508 147.66C203.138 147.2 202.628 146.97 201.978 146.97C201.338 146.97 200.828 147.2 200.448 147.66C200.078 148.12 199.893 148.68 199.893 149.34C199.893 150.03 200.078 150.61 200.448 151.08C200.828 151.55 201.338 151.785 201.978 151.785ZM204.693 152.07C204.023 152.81 203.118 153.18 201.978 153.18C200.838 153.18 199.933 152.795 199.263 152.025C198.603 151.245 198.273 150.25 198.273 149.04C198.273 147.31 198.568 146.02 199.158 145.17C199.758 144.32 200.678 143.82 201.918 143.67C202.668 143.56 203.183 143.455 203.463 143.355C203.753 143.255 203.898 143.135 203.898 142.995H205.443C205.443 144.045 204.413 144.685 202.353 144.915C201.543 145.005 200.918 145.23 200.478 145.59C200.048 145.94 199.778 146.36 199.668 146.85C199.958 146.45 200.333 146.14 200.793 145.92C201.263 145.69 201.758 145.575 202.278 145.575C203.278 145.575 204.098 145.945 204.738 146.685C205.378 147.425 205.698 148.315 205.698 149.355C205.698 150.425 205.363 151.33 204.693 152.07ZM210.666 153.18C209.566 153.18 208.666 152.825 207.966 152.115C207.266 151.395 206.916 150.48 206.916 149.37C206.916 148.27 207.266 147.365 207.966 146.655C208.666 145.935 209.566 145.575 210.666 145.575C211.876 145.575 212.801 146.005 213.441 146.865L212.406 147.825C212.006 147.255 211.451 146.97 210.741 146.97C210.081 146.97 209.551 147.195 209.151 147.645C208.751 148.085 208.551 148.66 208.551 149.37C208.551 150.08 208.751 150.66 209.151 151.11C209.551 151.56 210.081 151.785 210.741 151.785C211.431 151.785 211.986 151.5 212.406 150.93L213.441 151.89C212.801 152.75 211.876 153.18 210.666 153.18ZM217.717 153H216.142V147.135H214.072V145.755H219.802V147.135H217.717V153ZM225.531 153H221.091V145.755H225.426C226.096 145.755 226.621 145.93 227.001 146.28C227.381 146.63 227.571 147.075 227.571 147.615C227.571 148.035 227.456 148.39 227.226 148.68C226.996 148.97 226.706 149.165 226.356 149.265C226.746 149.355 227.071 149.57 227.331 149.91C227.591 150.24 227.721 150.615 227.721 151.035C227.721 151.615 227.526 152.09 227.136 152.46C226.756 152.82 226.221 153 225.531 153ZM225.201 151.62C225.481 151.62 225.701 151.55 225.861 151.41C226.021 151.26 226.101 151.06 226.101 150.81C226.101 150.58 226.021 150.385 225.861 150.225C225.701 150.065 225.481 149.985 225.201 149.985H222.666V151.62H225.201ZM225.156 148.605C225.406 148.605 225.601 148.54 225.741 148.41C225.891 148.27 225.966 148.095 225.966 147.885C225.966 147.655 225.891 147.475 225.741 147.345C225.601 147.205 225.406 147.135 225.156 147.135H222.666V148.605H225.156ZM233.02 153.18C231.92 153.18 231.01 152.83 230.29 152.13C229.58 151.42 229.225 150.5 229.225 149.37C229.225 148.31 229.57 147.415 230.26 146.685C230.96 145.945 231.84 145.575 232.9 145.575C233.97 145.575 234.83 145.945 235.48 146.685C236.14 147.425 236.47 148.37 236.47 149.52V149.895H230.875C230.935 150.465 231.17 150.94 231.58 151.32C231.99 151.7 232.525 151.89 233.185 151.89C233.555 151.89 233.925 151.82 234.295 151.68C234.675 151.54 234.99 151.345 235.24 151.095L235.96 152.13C235.23 152.83 234.25 153.18 233.02 153.18ZM234.94 148.785C234.92 148.285 234.735 147.84 234.385 147.45C234.045 147.06 233.55 146.865 232.9 146.865C232.28 146.865 231.795 147.06 231.445 147.45C231.095 147.83 230.9 148.275 230.86 148.785H234.94ZM239.6 153H238.025V145.755H239.6V148.605H242.93V145.755H244.505V153H242.93V149.985H239.6V153ZM248.125 153H246.55V145.755H248.125V148.605H251.455V145.755H253.03V153H251.455V149.985H248.125V153ZM258.346 153.18C257.226 153.18 256.326 152.815 255.646 152.085C254.966 151.345 254.626 150.44 254.626 149.37C254.626 148.3 254.966 147.4 255.646 146.67C256.326 145.94 257.226 145.575 258.346 145.575C259.476 145.575 260.381 145.94 261.061 146.67C261.741 147.4 262.081 148.3 262.081 149.37C262.081 150.45 261.741 151.355 261.061 152.085C260.381 152.815 259.476 153.18 258.346 153.18ZM258.346 151.785C258.996 151.785 259.506 151.555 259.876 151.095C260.256 150.625 260.446 150.05 260.446 149.37C260.446 148.7 260.256 148.135 259.876 147.675C259.506 147.205 258.996 146.97 258.346 146.97C257.706 146.97 257.196 147.205 256.816 147.675C256.446 148.135 256.261 148.7 256.261 149.37C256.261 150.05 256.446 150.625 256.816 151.095C257.196 151.555 257.706 151.785 258.346 151.785ZM266.974 153.18C265.874 153.18 264.974 152.825 264.274 152.115C263.574 151.395 263.224 150.48 263.224 149.37C263.224 148.27 263.574 147.365 264.274 146.655C264.974 145.935 265.874 145.575 266.974 145.575C268.184 145.575 269.109 146.005 269.749 146.865L268.714 147.825C268.314 147.255 267.759 146.97 267.049 146.97C266.389 146.97 265.859 147.195 265.459 147.645C265.059 148.085 264.859 148.66 264.859 149.37C264.859 150.08 265.059 150.66 265.459 151.11C265.859 151.56 266.389 151.785 267.049 151.785C267.739 151.785 268.294 151.5 268.714 150.93L269.749 151.89C269.109 152.75 268.184 153.18 266.974 153.18ZM274.025 153H272.45V147.135H270.38V145.755H276.11V147.135H274.025V153ZM278.915 153H277.4V145.755H278.975V150.63L282.305 145.755H283.88V153H282.305V147.99L278.915 153ZM296.258 153H294.683V147.135H291.353V153H289.778V145.755H296.258V153ZM301.573 153.18C300.453 153.18 299.553 152.815 298.873 152.085C298.193 151.345 297.853 150.44 297.853 149.37C297.853 148.3 298.193 147.4 298.873 146.67C299.553 145.94 300.453 145.575 301.573 145.575C302.703 145.575 303.608 145.94 304.288 146.67C304.968 147.4 305.308 148.3 305.308 149.37C305.308 150.45 304.968 151.355 304.288 152.085C303.608 152.815 302.703 153.18 301.573 153.18ZM301.573 151.785C302.223 151.785 302.733 151.555 303.103 151.095C303.483 150.625 303.673 150.05 303.673 149.37C303.673 148.7 303.483 148.135 303.103 147.675C302.733 147.205 302.223 146.97 301.573 146.97C300.933 146.97 300.423 147.205 300.043 147.675C299.673 148.135 299.488 148.7 299.488 149.37C299.488 150.05 299.673 150.625 300.043 151.095C300.423 151.555 300.933 151.785 301.573 151.785ZM319.514 153H317.759V144.54H312.554V153H310.799V142.995H319.514V153ZM325.779 153H324.024V144.54H320.994V142.995H328.809V144.54H325.779V153ZM334.716 153.18C333.216 153.18 331.966 152.7 330.966 151.74C329.966 150.77 329.466 149.525 329.466 148.005C329.466 146.485 329.966 145.245 330.966 144.285C331.966 143.315 333.216 142.83 334.716 142.83C336.456 142.83 337.796 143.58 338.736 145.08L337.236 145.845C336.986 145.415 336.631 145.065 336.171 144.795C335.721 144.525 335.236 144.39 334.716 144.39C333.726 144.39 332.901 144.73 332.241 145.41C331.591 146.09 331.266 146.955 331.266 148.005C331.266 149.055 331.591 149.92 332.241 150.6C332.901 151.28 333.726 151.62 334.716 151.62C335.246 151.62 335.736 151.485 336.186 151.215C336.636 150.945 336.986 150.595 337.236 150.165L338.736 150.93C337.776 152.43 336.436 153.18 334.716 153.18Z" fill="#333331"/>
<circle cx="59.5" cy="183.5" r="3" stroke="#FDB106" stroke-width="3"/>
<path opacity="0.66" d="M86.78 188H85.025V179.54H79.82V188H78.065V177.995H86.78V188ZM88.1098 188.18V186.89C88.4198 186.89 88.6648 186.69 88.8448 186.29C89.0348 185.89 89.1898 185.22 89.3098 184.28L89.7448 180.755H95.3398V188H93.7648V182.135H91.1398L90.8848 184.46C90.7448 185.76 90.4498 186.705 89.9998 187.295C89.5498 187.885 88.9198 188.18 88.1098 188.18ZM103.385 188H101.81V187.22C101.25 187.86 100.47 188.18 99.4702 188.18C98.8102 188.18 98.2252 187.97 97.7152 187.55C97.2052 187.12 96.9502 186.53 96.9502 185.78C96.9502 185.01 97.2002 184.425 97.7002 184.025C98.2102 183.625 98.8002 183.425 99.4702 183.425C100.5 183.425 101.28 183.735 101.81 184.355V183.275C101.81 182.855 101.655 182.525 101.345 182.285C101.035 182.045 100.625 181.925 100.115 181.925C99.3052 181.925 98.5902 182.23 97.9702 182.84L97.3252 181.745C98.1452 180.965 99.1602 180.575 100.37 180.575C101.26 180.575 101.985 180.785 102.545 181.205C103.105 181.625 103.385 182.29 103.385 183.2V188ZM100.085 187.1C100.875 187.1 101.45 186.85 101.81 186.35V185.255C101.45 184.755 100.875 184.505 100.085 184.505C99.6352 184.505 99.2652 184.625 98.9752 184.865C98.6852 185.105 98.5402 185.42 98.5402 185.81C98.5402 186.2 98.6852 186.515 98.9752 186.755C99.2652 186.985 99.6352 187.1 100.085 187.1ZM108.322 188H106.747V182.135H104.677V180.755H110.407V182.135H108.322V188ZM115.042 188.18C113.942 188.18 113.032 187.83 112.312 187.13C111.602 186.42 111.247 185.5 111.247 184.37C111.247 183.31 111.592 182.415 112.282 181.685C112.982 180.945 113.862 180.575 114.922 180.575C115.992 180.575 116.852 180.945 117.502 181.685C118.162 182.425 118.492 183.37 118.492 184.52V184.895H112.897C112.957 185.465 113.192 185.94 113.602 186.32C114.012 186.7 114.547 186.89 115.207 186.89C115.577 186.89 115.947 186.82 116.317 186.68C116.697 186.54 117.012 186.345 117.262 186.095L117.982 187.13C117.252 187.83 116.272 188.18 115.042 188.18ZM116.962 183.785C116.942 183.285 116.757 182.84 116.407 182.45C116.067 182.06 115.572 181.865 114.922 181.865C114.302 181.865 113.817 182.06 113.467 182.45C113.117 182.83 112.922 183.275 112.882 183.785H116.962ZM121.096 188H119.116L122.191 184.04L119.176 180.755H121.126L123.721 183.59V180.755H125.296V183.59L127.891 180.755H129.841L126.826 184.04L129.901 188H127.921L125.701 185.015L125.296 185.435V188H123.721V185.435L123.316 185.015L121.096 188ZM141.351 188H139.776V182.135H136.446V188H134.871V180.755H141.351V188ZM146.666 188.18C145.546 188.18 144.646 187.815 143.966 187.085C143.286 186.345 142.946 185.44 142.946 184.37C142.946 183.3 143.286 182.4 143.966 181.67C144.646 180.94 145.546 180.575 146.666 180.575C147.796 180.575 148.701 180.94 149.381 181.67C150.061 182.4 150.401 183.3 150.401 184.37C150.401 185.45 150.061 186.355 149.381 187.085C148.701 187.815 147.796 188.18 146.666 188.18ZM146.666 186.785C147.316 186.785 147.826 186.555 148.196 186.095C148.576 185.625 148.766 185.05 148.766 184.37C148.766 183.7 148.576 183.135 148.196 182.675C147.826 182.205 147.316 181.97 146.666 181.97C146.026 181.97 145.516 182.205 145.136 182.675C144.766 183.135 144.581 183.7 144.581 184.37C144.581 185.05 144.766 185.625 145.136 186.095C145.516 186.555 146.026 186.785 146.666 186.785ZM162.627 188H160.647L158.427 185.015L157.422 186.05V188H155.847V180.755H157.422V184.25L160.617 180.755H162.567L159.552 184.04L162.627 188ZM167.643 188.18C166.683 188.18 165.908 187.785 165.318 186.995V190.76H163.743V180.755H165.318V181.745C165.898 180.965 166.673 180.575 167.643 180.575C168.593 180.575 169.363 180.915 169.953 181.595C170.553 182.275 170.853 183.2 170.853 184.37C170.853 185.54 170.553 186.47 169.953 187.16C169.363 187.84 168.593 188.18 167.643 188.18ZM167.178 186.785C167.798 186.785 168.293 186.56 168.663 186.11C169.033 185.66 169.218 185.08 169.218 184.37C169.218 183.66 169.033 183.085 168.663 182.645C168.293 182.195 167.798 181.97 167.178 181.97C166.818 181.97 166.463 182.065 166.113 182.255C165.763 182.445 165.498 182.675 165.318 182.945V185.81C165.498 186.08 165.763 186.31 166.113 186.5C166.463 186.69 166.818 186.785 167.178 186.785ZM175.76 188.18C174.66 188.18 173.75 187.83 173.03 187.13C172.32 186.42 171.965 185.5 171.965 184.37C171.965 183.31 172.31 182.415 173 181.685C173.7 180.945 174.58 180.575 175.64 180.575C176.71 180.575 177.57 180.945 178.22 181.685C178.88 182.425 179.21 183.37 179.21 184.52V184.895H173.615C173.675 185.465 173.91 185.94 174.32 186.32C174.73 186.7 175.265 186.89 175.925 186.89C176.295 186.89 176.665 186.82 177.035 186.68C177.415 186.54 177.73 186.345 177.98 186.095L178.7 187.13C177.97 187.83 176.99 188.18 175.76 188.18ZM177.68 183.785C177.66 183.285 177.475 182.84 177.125 182.45C176.785 182.06 176.29 181.865 175.64 181.865C175.02 181.865 174.535 182.06 174.185 182.45C173.835 182.83 173.64 183.275 173.6 183.785H177.68ZM180.014 189.845V186.695C180.354 186.615 180.609 186.42 180.779 186.11C180.959 185.79 181.104 185.18 181.214 184.28L181.649 180.755H187.244V186.62H188.039V189.845H186.464V188H181.589V189.845H180.014ZM183.044 182.135L182.789 184.46C182.689 185.42 182.369 186.14 181.829 186.62H185.669V182.135H183.044ZM190.848 188H189.333V180.755H190.908V185.63L194.238 180.755H195.813V188H194.238V182.99L190.848 188ZM200.754 188H199.179V182.135H197.109V180.755H202.839V182.135H200.754V188ZM203.813 190.835L204.053 189.425C204.233 189.505 204.433 189.545 204.653 189.545C205.163 189.545 205.508 189.335 205.688 188.915L206.048 188.09L203.078 180.755H204.758L206.873 186.185L208.988 180.755H210.683L207.188 189.305C206.758 190.375 205.928 190.92 204.698 190.94C204.368 190.94 204.073 190.905 203.813 190.835ZM218.795 188.18C217.675 188.18 216.775 187.815 216.095 187.085C215.415 186.345 215.075 185.44 215.075 184.37C215.075 183.3 215.415 182.4 216.095 181.67C216.775 180.94 217.675 180.575 218.795 180.575C219.925 180.575 220.83 180.94 221.51 181.67C222.19 182.4 222.53 183.3 222.53 184.37C222.53 185.45 222.19 186.355 221.51 187.085C220.83 187.815 219.925 188.18 218.795 188.18ZM218.795 186.785C219.445 186.785 219.955 186.555 220.325 186.095C220.705 185.625 220.895 185.05 220.895 184.37C220.895 183.7 220.705 183.135 220.325 182.675C219.955 182.205 219.445 181.97 218.795 181.97C218.155 181.97 217.645 182.205 217.265 182.675C216.895 183.135 216.71 183.7 216.71 184.37C216.71 185.05 216.895 185.625 217.265 186.095C217.645 186.555 218.155 186.785 218.795 186.785ZM227.019 188H225.444V182.135H223.374V180.755H229.104V182.135H227.019V188ZM237.201 188.165C236.031 188.165 235.076 187.795 234.336 187.055L235.146 185.735C235.706 186.315 236.391 186.605 237.201 186.605C238.051 186.605 238.701 186.285 239.151 185.645C239.611 184.995 239.841 184.22 239.841 183.32V183.02C239.581 183.39 239.206 183.72 238.716 184.01C238.226 184.29 237.706 184.43 237.156 184.43C236.206 184.43 235.406 184.145 234.756 183.575C234.116 183.005 233.796 182.21 233.796 181.19C233.796 180.24 234.136 179.445 234.816 178.805C235.506 178.155 236.396 177.83 237.486 177.83C238.426 177.83 239.211 178.075 239.841 178.565C240.481 179.045 240.936 179.665 241.206 180.425C241.476 181.175 241.611 182.035 241.611 183.005C241.611 184.505 241.226 185.74 240.456 186.71C239.686 187.68 238.601 188.165 237.201 188.165ZM237.621 182.915C238.051 182.915 238.461 182.81 238.851 182.6C239.241 182.39 239.561 182.105 239.811 181.745C239.761 181.115 239.551 180.565 239.181 180.095C238.821 179.625 238.286 179.39 237.576 179.39C236.966 179.39 236.481 179.57 236.121 179.93C235.761 180.29 235.581 180.69 235.581 181.13C235.581 181.71 235.776 182.155 236.166 182.465C236.556 182.765 237.041 182.915 237.621 182.915ZM248.654 187.73C248.124 188.03 247.524 188.18 246.854 188.18C246.184 188.18 245.584 188.03 245.054 187.73C244.524 187.43 244.104 187.03 243.794 186.53C243.484 186.03 243.249 185.48 243.089 184.88C242.929 184.28 242.849 183.655 242.849 183.005C242.849 182.355 242.929 181.73 243.089 181.13C243.249 180.53 243.484 179.985 243.794 179.495C244.104 178.995 244.524 178.595 245.054 178.295C245.584 177.995 246.184 177.845 246.854 177.845C247.524 177.845 248.124 177.995 248.654 178.295C249.184 178.595 249.604 178.995 249.914 179.495C250.224 179.985 250.459 180.53 250.619 181.13C250.779 181.73 250.859 182.355 250.859 183.005C250.859 183.655 250.779 184.28 250.619 184.88C250.459 185.48 250.224 186.03 249.914 186.53C249.604 187.03 249.184 187.43 248.654 187.73ZM245.174 185.6C245.534 186.28 246.094 186.62 246.854 186.62C247.614 186.62 248.174 186.28 248.534 185.6C248.894 184.92 249.074 184.055 249.074 183.005C249.074 182.335 249.004 181.74 248.864 181.22C248.734 180.7 248.494 180.27 248.144 179.93C247.804 179.58 247.374 179.405 246.854 179.405C246.334 179.405 245.899 179.58 245.549 179.93C245.209 180.27 244.969 180.7 244.829 181.22C244.699 181.74 244.634 182.335 244.634 183.005C244.634 184.055 244.814 184.92 245.174 185.6ZM260.25 188.18C259.29 188.18 258.515 187.785 257.925 186.995V190.76H256.35V180.755H257.925V181.745C258.505 180.965 259.28 180.575 260.25 180.575C261.2 180.575 261.97 180.915 262.56 181.595C263.16 182.275 263.46 183.2 263.46 184.37C263.46 185.54 263.16 186.47 262.56 187.16C261.97 187.84 261.2 188.18 260.25 188.18ZM259.785 186.785C260.405 186.785 260.9 186.56 261.27 186.11C261.64 185.66 261.825 185.08 261.825 184.37C261.825 183.66 261.64 183.085 261.27 182.645C260.9 182.195 260.405 181.97 259.785 181.97C259.425 181.97 259.07 182.065 258.72 182.255C258.37 182.445 258.105 182.675 257.925 182.945V185.81C258.105 186.08 258.37 186.31 258.72 186.5C259.07 186.69 259.425 186.785 259.785 186.785ZM264.707 190.835L264.947 189.425C265.127 189.505 265.327 189.545 265.547 189.545C266.057 189.545 266.402 189.335 266.582 188.915L266.942 188.09L263.972 180.755H265.652L267.767 186.185L269.882 180.755H271.577L268.082 189.305C267.652 190.375 266.822 190.92 265.592 190.94C265.262 190.94 264.967 190.905 264.707 190.835ZM275.836 186.785C276.486 186.785 276.996 186.55 277.366 186.08C277.746 185.61 277.936 185.03 277.936 184.34C277.936 183.68 277.746 183.12 277.366 182.66C276.996 182.2 276.486 181.97 275.836 181.97C275.196 181.97 274.686 182.2 274.306 182.66C273.936 183.12 273.751 183.68 273.751 184.34C273.751 185.03 273.936 185.61 274.306 186.08C274.686 186.55 275.196 186.785 275.836 186.785ZM278.551 187.07C277.881 187.81 276.976 188.18 275.836 188.18C274.696 188.18 273.791 187.795 273.121 187.025C272.461 186.245 272.131 185.25 272.131 184.04C272.131 182.31 272.426 181.02 273.016 180.17C273.616 179.32 274.536 178.82 275.776 178.67C276.526 178.56 277.041 178.455 277.321 178.355C277.611 178.255 277.756 178.135 277.756 177.995H279.301C279.301 179.045 278.271 179.685 276.211 179.915C275.401 180.005 274.776 180.23 274.336 180.59C273.906 180.94 273.636 181.36 273.526 181.85C273.816 181.45 274.191 181.14 274.651 180.92C275.121 180.69 275.616 180.575 276.136 180.575C277.136 180.575 277.956 180.945 278.596 181.685C279.236 182.425 279.556 183.315 279.556 184.355C279.556 185.425 279.221 186.33 278.551 187.07ZM282.768 187.865C282.558 188.065 282.313 188.165 282.033 188.165C281.753 188.165 281.508 188.065 281.298 187.865C281.088 187.655 280.983 187.405 280.983 187.115C280.983 186.825 281.088 186.58 281.298 186.38C281.508 186.17 281.753 186.065 282.033 186.065C282.313 186.065 282.558 186.17 282.768 186.38C282.978 186.58 283.083 186.825 283.083 187.115C283.083 187.405 282.978 187.655 282.768 187.865ZM293.192 188H288.752V180.755H293.087C293.757 180.755 294.282 180.93 294.662 181.28C295.042 181.63 295.232 182.075 295.232 182.615C295.232 183.035 295.117 183.39 294.887 183.68C294.657 183.97 294.367 184.165 294.017 184.265C294.407 184.355 294.732 184.57 294.992 184.91C295.252 185.24 295.382 185.615 295.382 186.035C295.382 186.615 295.187 187.09 294.797 187.46C294.417 187.82 293.882 188 293.192 188ZM292.862 186.62C293.142 186.62 293.362 186.55 293.522 186.41C293.682 186.26 293.762 186.06 293.762 185.81C293.762 185.58 293.682 185.385 293.522 185.225C293.362 185.065 293.142 184.985 292.862 184.985H290.327V186.62H292.862ZM292.817 183.605C293.067 183.605 293.262 183.54 293.402 183.41C293.552 183.27 293.627 183.095 293.627 182.885C293.627 182.655 293.552 182.475 293.402 182.345C293.262 182.205 293.067 182.135 292.817 182.135H290.327V183.605H292.817ZM300.439 189.845V186.695C300.779 186.615 301.034 186.42 301.204 186.11C301.384 185.79 301.529 185.18 301.639 184.28L302.074 180.755H307.669V186.62H308.464V189.845H306.889V188H302.014V189.845H300.439ZM303.469 182.135L303.214 184.46C303.114 185.42 302.794 186.14 302.254 186.62H306.094V182.135H303.469ZM313.103 188.18C312.003 188.18 311.093 187.83 310.373 187.13C309.663 186.42 309.308 185.5 309.308 184.37C309.308 183.31 309.653 182.415 310.343 181.685C311.043 180.945 311.923 180.575 312.983 180.575C314.053 180.575 314.913 180.945 315.563 181.685C316.223 182.425 316.553 183.37 316.553 184.52V184.895H310.958C311.018 185.465 311.253 185.94 311.663 186.32C312.073 186.7 312.608 186.89 313.268 186.89C313.638 186.89 314.008 186.82 314.378 186.68C314.758 186.54 315.073 186.345 315.323 186.095L316.043 187.13C315.313 187.83 314.333 188.18 313.103 188.18ZM315.023 183.785C315.003 183.285 314.818 182.84 314.468 182.45C314.128 182.06 313.633 181.865 312.983 181.865C312.363 181.865 311.878 182.06 311.528 182.45C311.178 182.83 310.983 183.275 310.943 183.785H315.023ZM319.683 188H318.108V180.755H319.683V183.605H323.013V180.755H324.588V188H323.013V184.985H319.683V188ZM326.633 180.755H328.208V183.38H330.773C331.543 183.38 332.133 183.6 332.543 184.04C332.963 184.48 333.173 185.03 333.173 185.69C333.173 186.34 332.958 186.89 332.528 187.34C332.108 187.78 331.523 188 330.773 188H326.633V180.755ZM330.578 184.76H328.208V186.62H330.578C330.888 186.62 331.128 186.535 331.298 186.365C331.478 186.195 331.568 185.97 331.568 185.69C331.568 185.41 331.478 185.185 331.298 185.015C331.128 184.845 330.888 184.76 330.578 184.76Z" fill="#333331"/>
<circle cx="59.5" cy="226" r="3" stroke="#FDB106" stroke-width="3"/>
<path opacity="0.66" d="M79.82 223H78.065V212.995H82.46C83.47 212.995 84.265 213.295 84.845 213.895C85.435 214.495 85.73 215.24 85.73 216.13C85.73 217.01 85.435 217.755 84.845 218.365C84.265 218.965 83.47 219.265 82.46 219.265H79.82V223ZM82.22 217.72C82.72 217.72 83.13 217.575 83.45 217.285C83.77 216.995 83.93 216.61 83.93 216.13C83.93 215.65 83.77 215.265 83.45 214.975C83.13 214.685 82.72 214.54 82.22 214.54H79.82V217.72H82.22ZM92.853 223H91.278V222.22C90.718 222.86 89.938 223.18 88.938 223.18C88.278 223.18 87.693 222.97 87.183 222.55C86.673 222.12 86.418 221.53 86.418 220.78C86.418 220.01 86.668 219.425 87.168 219.025C87.678 218.625 88.268 218.425 88.938 218.425C89.968 218.425 90.748 218.735 91.278 219.355V218.275C91.278 217.855 91.123 217.525 90.813 217.285C90.503 217.045 90.093 216.925 89.583 216.925C88.773 216.925 88.058 217.23 87.438 217.84L86.793 216.745C87.613 215.965 88.628 215.575 89.838 215.575C90.728 215.575 91.453 215.785 92.013 216.205C92.573 216.625 92.853 217.29 92.853 218.2V223ZM89.553 222.1C90.343 222.1 90.918 221.85 91.278 221.35V220.255C90.918 219.755 90.343 219.505 89.553 219.505C89.103 219.505 88.733 219.625 88.443 219.865C88.153 220.105 88.008 220.42 88.008 220.81C88.008 221.2 88.153 221.515 88.443 221.755C88.733 221.985 89.103 222.1 89.553 222.1ZM98.195 223.18C97.095 223.18 96.195 222.825 95.495 222.115C94.795 221.395 94.445 220.48 94.445 219.37C94.445 218.27 94.795 217.365 95.495 216.655C96.195 215.935 97.095 215.575 98.195 215.575C99.405 215.575 100.33 216.005 100.97 216.865L99.935 217.825C99.535 217.255 98.98 216.97 98.27 216.97C97.61 216.97 97.08 217.195 96.68 217.645C96.28 218.085 96.08 218.66 96.08 219.37C96.08 220.08 96.28 220.66 96.68 221.11C97.08 221.56 97.61 221.785 98.27 221.785C98.96 221.785 99.515 221.5 99.935 220.93L100.97 221.89C100.33 222.75 99.405 223.18 98.195 223.18ZM105.651 223.18C104.551 223.18 103.651 222.825 102.951 222.115C102.251 221.395 101.901 220.48 101.901 219.37C101.901 218.27 102.251 217.365 102.951 216.655C103.651 215.935 104.551 215.575 105.651 215.575C106.861 215.575 107.786 216.005 108.426 216.865L107.391 217.825C106.991 217.255 106.436 216.97 105.726 216.97C105.066 216.97 104.536 217.195 104.136 217.645C103.736 218.085 103.536 218.66 103.536 219.37C103.536 220.08 103.736 220.66 104.136 221.11C104.536 221.56 105.066 221.785 105.726 221.785C106.416 221.785 106.971 221.5 107.391 220.93L108.426 221.89C107.786 222.75 106.861 223.18 105.651 223.18ZM113.707 223.18C112.747 223.18 111.972 222.785 111.382 221.995V225.76H109.807V215.755H111.382V216.745C111.962 215.965 112.737 215.575 113.707 215.575C114.657 215.575 115.427 215.915 116.017 216.595C116.617 217.275 116.917 218.2 116.917 219.37C116.917 220.54 116.617 221.47 116.017 222.16C115.427 222.84 114.657 223.18 113.707 223.18ZM113.242 221.785C113.862 221.785 114.357 221.56 114.727 221.11C115.097 220.66 115.282 220.08 115.282 219.37C115.282 218.66 115.097 218.085 114.727 217.645C114.357 217.195 113.862 216.97 113.242 216.97C112.882 216.97 112.527 217.065 112.177 217.255C111.827 217.445 111.562 217.675 111.382 217.945V220.81C111.562 221.08 111.827 221.31 112.177 221.5C112.527 221.69 112.882 221.785 113.242 221.785ZM121.749 223.18C120.629 223.18 119.729 222.815 119.049 222.085C118.369 221.345 118.029 220.44 118.029 219.37C118.029 218.3 118.369 217.4 119.049 216.67C119.729 215.94 120.629 215.575 121.749 215.575C122.879 215.575 123.784 215.94 124.464 216.67C125.144 217.4 125.484 218.3 125.484 219.37C125.484 220.45 125.144 221.355 124.464 222.085C123.784 222.815 122.879 223.18 121.749 223.18ZM121.749 221.785C122.399 221.785 122.909 221.555 123.279 221.095C123.659 220.625 123.849 220.05 123.849 219.37C123.849 218.7 123.659 218.135 123.279 217.675C122.909 217.205 122.399 216.97 121.749 216.97C121.109 216.97 120.599 217.205 120.219 217.675C119.849 218.135 119.664 218.7 119.664 219.37C119.664 220.05 119.849 220.625 120.219 221.095C120.599 221.555 121.109 221.785 121.749 221.785ZM126.823 215.755H128.398V217.705C128.398 218.245 128.533 218.625 128.803 218.845C129.083 219.065 129.523 219.175 130.123 219.175C130.773 219.175 131.303 219.085 131.713 218.905V215.755H133.288V223H131.713V220.18C131.193 220.44 130.498 220.57 129.628 220.57C128.638 220.57 127.923 220.38 127.483 220C127.043 219.62 126.823 219.045 126.823 218.275V215.755ZM142.105 223H140.125L137.905 220.015L136.9 221.05V223H135.325V215.755H136.9V219.25L140.095 215.755H142.045L139.03 219.04L142.105 223ZM149.22 223H147.645V222.22C147.085 222.86 146.305 223.18 145.305 223.18C144.645 223.18 144.06 222.97 143.55 222.55C143.04 222.12 142.785 221.53 142.785 220.78C142.785 220.01 143.035 219.425 143.535 219.025C144.045 218.625 144.635 218.425 145.305 218.425C146.335 218.425 147.115 218.735 147.645 219.355V218.275C147.645 217.855 147.49 217.525 147.18 217.285C146.87 217.045 146.46 216.925 145.95 216.925C145.14 216.925 144.425 217.23 143.805 217.84L143.16 216.745C143.98 215.965 144.995 215.575 146.205 215.575C147.095 215.575 147.82 215.785 148.38 216.205C148.94 216.625 149.22 217.29 149.22 218.2V223ZM145.92 222.1C146.71 222.1 147.285 221.85 147.645 221.35V220.255C147.285 219.755 146.71 219.505 145.92 219.505C145.47 219.505 145.1 219.625 144.81 219.865C144.52 220.105 144.375 220.42 144.375 220.81C144.375 221.2 144.52 221.515 144.81 221.755C145.1 221.985 145.47 222.1 145.92 222.1ZM160.515 222.73C159.985 223.03 159.385 223.18 158.715 223.18C158.045 223.18 157.445 223.03 156.915 222.73C156.385 222.43 155.965 222.03 155.655 221.53C155.345 221.03 155.11 220.48 154.95 219.88C154.79 219.28 154.71 218.655 154.71 218.005C154.71 217.355 154.79 216.73 154.95 216.13C155.11 215.53 155.345 214.985 155.655 214.495C155.965 213.995 156.385 213.595 156.915 213.295C157.445 212.995 158.045 212.845 158.715 212.845C159.385 212.845 159.985 212.995 160.515 213.295C161.045 213.595 161.465 213.995 161.775 214.495C162.085 214.985 162.32 215.53 162.48 216.13C162.64 216.73 162.72 217.355 162.72 218.005C162.72 218.655 162.64 219.28 162.48 219.88C162.32 220.48 162.085 221.03 161.775 221.53C161.465 222.03 161.045 222.43 160.515 222.73ZM157.035 220.6C157.395 221.28 157.955 221.62 158.715 221.62C159.475 221.62 160.035 221.28 160.395 220.6C160.755 219.92 160.935 219.055 160.935 218.005C160.935 217.335 160.865 216.74 160.725 216.22C160.595 215.7 160.355 215.27 160.005 214.93C159.665 214.58 159.235 214.405 158.715 214.405C158.195 214.405 157.76 214.58 157.41 214.93C157.07 215.27 156.83 215.7 156.69 216.22C156.56 216.74 156.495 217.335 156.495 218.005C156.495 219.055 156.675 219.92 157.035 220.6ZM166.233 217.81C165.503 217.81 164.908 217.58 164.448 217.12C163.988 216.65 163.758 216.06 163.758 215.35C163.758 214.63 163.988 214.035 164.448 213.565C164.908 213.085 165.503 212.845 166.233 212.845C166.973 212.845 167.573 213.085 168.033 213.565C168.503 214.035 168.738 214.63 168.738 215.35C168.738 216.06 168.503 216.65 168.033 217.12C167.573 217.58 166.973 217.81 166.233 217.81ZM166.263 223H165.273L171.663 212.995H172.668L166.263 223ZM173.403 222.49C172.943 222.95 172.348 223.18 171.618 223.18C170.888 223.18 170.293 222.95 169.833 222.49C169.373 222.02 169.143 221.43 169.143 220.72C169.143 220 169.373 219.405 169.833 218.935C170.293 218.455 170.888 218.215 171.618 218.215C172.348 218.215 172.943 218.455 173.403 218.935C173.873 219.415 174.108 220.01 174.108 220.72C174.108 221.43 173.873 222.02 173.403 222.49ZM166.233 216.82C166.623 216.82 166.943 216.685 167.193 216.415C167.443 216.135 167.568 215.78 167.568 215.35C167.568 214.9 167.443 214.54 167.193 214.27C166.943 213.99 166.623 213.85 166.233 213.85C165.843 213.85 165.523 213.99 165.273 214.27C165.033 214.54 164.913 214.9 164.913 215.35C164.913 215.78 165.038 216.135 165.288 216.415C165.538 216.685 165.853 216.82 166.233 216.82ZM170.658 221.785C170.908 222.055 171.228 222.19 171.618 222.19C172.008 222.19 172.328 222.055 172.578 221.785C172.828 221.505 172.953 221.15 172.953 220.72C172.953 220.27 172.828 219.91 172.578 219.64C172.328 219.36 172.008 219.22 171.618 219.22C171.228 219.22 170.908 219.36 170.658 219.64C170.418 219.91 170.298 220.27 170.298 220.72C170.298 221.15 170.418 221.505 170.658 221.785ZM182.672 221.785C183.322 221.785 183.832 221.55 184.202 221.08C184.582 220.61 184.772 220.03 184.772 219.34C184.772 218.68 184.582 218.12 184.202 217.66C183.832 217.2 183.322 216.97 182.672 216.97C182.032 216.97 181.522 217.2 181.142 217.66C180.772 218.12 180.587 218.68 180.587 219.34C180.587 220.03 180.772 220.61 181.142 221.08C181.522 221.55 182.032 221.785 182.672 221.785ZM185.387 222.07C184.717 222.81 183.812 223.18 182.672 223.18C181.532 223.18 180.627 222.795 179.957 222.025C179.297 221.245 178.967 220.25 178.967 219.04C178.967 217.31 179.262 216.02 179.852 215.17C180.452 214.32 181.372 213.82 182.612 213.67C183.362 213.56 183.877 213.455 184.157 213.355C184.447 213.255 184.592 213.135 184.592 212.995H186.137C186.137 214.045 185.107 214.685 183.047 214.915C182.237 215.005 181.612 215.23 181.172 215.59C180.742 215.94 180.472 216.36 180.362 216.85C180.652 216.45 181.027 216.14 181.487 215.92C181.957 215.69 182.452 215.575 182.972 215.575C183.972 215.575 184.792 215.945 185.432 216.685C186.072 217.425 186.392 218.315 186.392 219.355C186.392 220.425 186.057 221.33 185.387 222.07ZM191.404 223.18C190.304 223.18 189.394 222.83 188.674 222.13C187.964 221.42 187.609 220.5 187.609 219.37C187.609 218.31 187.954 217.415 188.644 216.685C189.344 215.945 190.224 215.575 191.284 215.575C192.354 215.575 193.214 215.945 193.864 216.685C194.524 217.425 194.854 218.37 194.854 219.52V219.895H189.259C189.319 220.465 189.554 220.94 189.964 221.32C190.374 221.7 190.909 221.89 191.569 221.89C191.939 221.89 192.309 221.82 192.679 221.68C193.059 221.54 193.374 221.345 193.624 221.095L194.344 222.13C193.614 222.83 192.634 223.18 191.404 223.18ZM193.324 218.785C193.304 218.285 193.119 217.84 192.769 217.45C192.429 217.06 191.934 216.865 191.284 216.865C190.664 216.865 190.179 217.06 189.829 217.45C189.479 217.83 189.284 218.275 189.244 218.785H193.324ZM199.019 223.18C197.599 223.18 196.489 222.79 195.689 222.01L196.424 221.005C197.084 221.595 197.949 221.89 199.019 221.89C199.569 221.89 199.999 221.805 200.309 221.635C200.629 221.455 200.789 221.215 200.789 220.915C200.789 220.285 200.154 219.97 198.884 219.97H197.339V218.71H198.884C199.434 218.71 199.864 218.63 200.174 218.47C200.494 218.31 200.654 218.075 200.654 217.765C200.654 217.505 200.489 217.29 200.159 217.12C199.829 216.95 199.414 216.865 198.914 216.865C197.944 216.865 197.169 217.155 196.589 217.735L195.809 216.775C196.579 215.985 197.589 215.59 198.839 215.59C199.909 215.58 200.749 215.755 201.359 216.115C201.979 216.465 202.289 216.945 202.289 217.555C202.289 218.015 202.094 218.405 201.704 218.725C201.324 219.035 200.879 219.225 200.369 219.295C200.879 219.335 201.349 219.505 201.779 219.805C202.219 220.105 202.439 220.515 202.439 221.035C202.439 221.665 202.129 222.18 201.509 222.58C200.899 222.98 200.069 223.18 199.019 223.18ZM214.358 223H212.783V217.135H209.453V223H207.878V215.755H214.358V223ZM219.749 223.18C218.649 223.18 217.739 222.83 217.019 222.13C216.309 221.42 215.954 220.5 215.954 219.37C215.954 218.31 216.299 217.415 216.989 216.685C217.689 215.945 218.569 215.575 219.629 215.575C220.699 215.575 221.559 215.945 222.209 216.685C222.869 217.425 223.199 218.37 223.199 219.52V219.895H217.604C217.664 220.465 217.899 220.94 218.309 221.32C218.719 221.7 219.254 221.89 219.914 221.89C220.284 221.89 220.654 221.82 221.024 221.68C221.404 221.54 221.719 221.345 221.969 221.095L222.689 222.13C221.959 222.83 220.979 223.18 219.749 223.18ZM221.669 218.785C221.649 218.285 221.464 217.84 221.114 217.45C220.774 217.06 220.279 216.865 219.629 216.865C219.009 216.865 218.524 217.06 218.174 217.45C217.824 217.83 217.629 218.275 217.589 218.785H221.669ZM228.653 223.18C227.693 223.18 226.918 222.785 226.328 221.995V225.76H224.753V215.755H226.328V216.745C226.908 215.965 227.683 215.575 228.653 215.575C229.603 215.575 230.373 215.915 230.963 216.595C231.563 217.275 231.863 218.2 231.863 219.37C231.863 220.54 231.563 221.47 230.963 222.16C230.373 222.84 229.603 223.18 228.653 223.18ZM228.188 221.785C228.808 221.785 229.303 221.56 229.673 221.11C230.043 220.66 230.228 220.08 230.228 219.37C230.228 218.66 230.043 218.085 229.673 217.645C229.303 217.195 228.808 216.97 228.188 216.97C227.828 216.97 227.473 217.065 227.123 217.255C226.773 217.445 226.508 217.675 226.328 217.945V220.81C226.508 221.08 226.773 221.31 227.123 221.5C227.473 221.69 227.828 221.785 228.188 221.785ZM237.865 223H233.425V215.755H237.76C238.43 215.755 238.955 215.93 239.335 216.28C239.715 216.63 239.905 217.075 239.905 217.615C239.905 218.035 239.79 218.39 239.56 218.68C239.33 218.97 239.04 219.165 238.69 219.265C239.08 219.355 239.405 219.57 239.665 219.91C239.925 220.24 240.055 220.615 240.055 221.035C240.055 221.615 239.86 222.09 239.47 222.46C239.09 222.82 238.555 223 237.865 223ZM237.535 221.62C237.815 221.62 238.035 221.55 238.195 221.41C238.355 221.26 238.435 221.06 238.435 220.81C238.435 220.58 238.355 220.385 238.195 220.225C238.035 220.065 237.815 219.985 237.535 219.985H235V221.62H237.535ZM237.49 218.605C237.74 218.605 237.935 218.54 238.075 218.41C238.225 218.27 238.3 218.095 238.3 217.885C238.3 217.655 238.225 217.475 238.075 217.345C237.935 217.205 237.74 217.135 237.49 217.135H235V218.605H237.49ZM245.279 223.18C244.159 223.18 243.259 222.815 242.579 222.085C241.899 221.345 241.559 220.44 241.559 219.37C241.559 218.3 241.899 217.4 242.579 216.67C243.259 215.94 244.159 215.575 245.279 215.575C246.409 215.575 247.314 215.94 247.994 216.67C248.674 217.4 249.014 218.3 249.014 219.37C249.014 220.45 248.674 221.355 247.994 222.085C247.314 222.815 246.409 223.18 245.279 223.18ZM245.279 221.785C245.929 221.785 246.439 221.555 246.809 221.095C247.189 220.625 247.379 220.05 247.379 219.37C247.379 218.7 247.189 218.135 246.809 217.675C246.439 217.205 245.929 216.97 245.279 216.97C244.639 216.97 244.129 217.205 243.749 217.675C243.379 218.135 243.194 218.7 243.194 219.37C243.194 220.05 243.379 220.625 243.749 221.095C244.129 221.555 244.639 221.785 245.279 221.785ZM252.183 223H250.608V215.755H252.183V218.605H255.513V215.755H257.088V223H255.513V219.985H252.183V223ZM265.133 223H263.558V222.22C262.998 222.86 262.218 223.18 261.218 223.18C260.558 223.18 259.973 222.97 259.463 222.55C258.953 222.12 258.698 221.53 258.698 220.78C258.698 220.01 258.948 219.425 259.448 219.025C259.958 218.625 260.548 218.425 261.218 218.425C262.248 218.425 263.028 218.735 263.558 219.355V218.275C263.558 217.855 263.403 217.525 263.093 217.285C262.783 217.045 262.373 216.925 261.863 216.925C261.053 216.925 260.338 217.23 259.718 217.84L259.073 216.745C259.893 215.965 260.908 215.575 262.118 215.575C263.008 215.575 263.733 215.785 264.293 216.205C264.853 216.625 265.133 217.29 265.133 218.2V223ZM261.833 222.1C262.623 222.1 263.198 221.85 263.558 221.35V220.255C263.198 219.755 262.623 219.505 261.833 219.505C261.383 219.505 261.013 219.625 260.723 219.865C260.433 220.105 260.288 220.42 260.288 220.81C260.288 221.2 260.433 221.515 260.723 221.755C261.013 221.985 261.383 222.1 261.833 222.1ZM266.92 215.755H268.495V217.705C268.495 218.245 268.63 218.625 268.9 218.845C269.18 219.065 269.62 219.175 270.22 219.175C270.87 219.175 271.4 219.085 271.81 218.905V215.755H273.385V223H271.81V220.18C271.29 220.44 270.595 220.57 269.725 220.57C268.735 220.57 268.02 220.38 267.58 220C267.14 219.62 266.92 219.045 266.92 218.275V215.755ZM281.422 223H279.847V222.22C279.287 222.86 278.507 223.18 277.507 223.18C276.847 223.18 276.262 222.97 275.752 222.55C275.242 222.12 274.987 221.53 274.987 220.78C274.987 220.01 275.237 219.425 275.737 219.025C276.247 218.625 276.837 218.425 277.507 218.425C278.537 218.425 279.317 218.735 279.847 219.355V218.275C279.847 217.855 279.692 217.525 279.382 217.285C279.072 217.045 278.662 216.925 278.152 216.925C277.342 216.925 276.627 217.23 276.007 217.84L275.362 216.745C276.182 215.965 277.197 215.575 278.407 215.575C279.297 215.575 280.022 215.785 280.582 216.205C281.142 216.625 281.422 217.29 281.422 218.2V223ZM278.122 222.1C278.912 222.1 279.487 221.85 279.847 221.35V220.255C279.487 219.755 278.912 219.505 278.122 219.505C277.672 219.505 277.302 219.625 277.012 219.865C276.722 220.105 276.577 220.42 276.577 220.81C276.577 221.2 276.722 221.515 277.012 221.755C277.302 221.985 277.672 222.1 278.122 222.1ZM282.714 223.18V221.89C283.024 221.89 283.269 221.69 283.449 221.29C283.639 220.89 283.794 220.22 283.914 219.28L284.349 215.755H289.944V223H288.369V217.135H285.744L285.489 219.46C285.349 220.76 285.054 221.705 284.604 222.295C284.154 222.885 283.524 223.18 282.714 223.18ZM291.99 215.755H293.565V218.38H296.13C296.9 218.38 297.49 218.6 297.9 219.04C298.32 219.48 298.53 220.03 298.53 220.69C298.53 221.34 298.315 221.89 297.885 222.34C297.465 222.78 296.88 223 296.13 223H291.99V215.755ZM295.935 219.76H293.565V221.62H295.935C296.245 221.62 296.485 221.535 296.655 221.365C296.835 221.195 296.925 220.97 296.925 220.69C296.925 220.41 296.835 220.185 296.655 220.015C296.485 219.845 296.245 219.76 295.935 219.76ZM301.665 223H300.09V215.755H301.665V218.605H304.995V215.755H306.57V223H304.995V219.985H301.665V223ZM311.886 223.18C310.766 223.18 309.866 222.815 309.186 222.085C308.506 221.345 308.166 220.44 308.166 219.37C308.166 218.3 308.506 217.4 309.186 216.67C309.866 215.94 310.766 215.575 311.886 215.575C313.016 215.575 313.921 215.94 314.601 216.67C315.281 217.4 315.621 218.3 315.621 219.37C315.621 220.45 315.281 221.355 314.601 222.085C313.921 222.815 313.016 223.18 311.886 223.18ZM311.886 221.785C312.536 221.785 313.046 221.555 313.416 221.095C313.796 220.625 313.986 220.05 313.986 219.37C313.986 218.7 313.796 218.135 313.416 217.675C313.046 217.205 312.536 216.97 311.886 216.97C311.246 216.97 310.736 217.205 310.356 217.675C309.986 218.135 309.801 218.7 309.801 219.37C309.801 220.05 309.986 220.625 310.356 221.095C310.736 221.555 311.246 221.785 311.886 221.785ZM322.704 215.755V217.135H318.789V223H317.214V215.755H322.704ZM327.267 223.18C326.147 223.18 325.247 222.815 324.567 222.085C323.887 221.345 323.547 220.44 323.547 219.37C323.547 218.3 323.887 217.4 324.567 216.67C325.247 215.94 326.147 215.575 327.267 215.575C328.397 215.575 329.302 215.94 329.982 216.67C330.662 217.4 331.002 218.3 331.002 219.37C331.002 220.45 330.662 221.355 329.982 222.085C329.302 222.815 328.397 223.18 327.267 223.18ZM327.267 221.785C327.917 221.785 328.427 221.555 328.797 221.095C329.177 220.625 329.367 220.05 329.367 219.37C329.367 218.7 329.177 218.135 328.797 217.675C328.427 217.205 327.917 216.97 327.267 216.97C326.627 216.97 326.117 217.205 325.737 217.675C325.367 218.135 325.182 218.7 325.182 219.37C325.182 220.05 325.367 220.625 325.737 221.095C326.117 221.555 326.627 221.785 327.267 221.785ZM82.46 238H78.02V230.755H82.355C83.025 230.755 83.55 230.93 83.93 231.28C84.31 231.63 84.5 232.075 84.5 232.615C84.5 233.035 84.385 233.39 84.155 233.68C83.925 233.97 83.635 234.165 83.285 234.265C83.675 234.355 84 234.57 84.26 234.91C84.52 235.24 84.65 235.615 84.65 236.035C84.65 236.615 84.455 237.09 84.065 237.46C83.685 237.82 83.15 238 82.46 238ZM82.13 236.62C82.41 236.62 82.63 236.55 82.79 236.41C82.95 236.26 83.03 236.06 83.03 235.81C83.03 235.58 82.95 235.385 82.79 235.225C82.63 235.065 82.41 234.985 82.13 234.985H79.595V236.62H82.13ZM82.085 233.605C82.335 233.605 82.53 233.54 82.67 233.41C82.82 233.27 82.895 233.095 82.895 232.885C82.895 232.655 82.82 232.475 82.67 232.345C82.53 232.205 82.335 232.135 82.085 232.135H79.595V233.605H82.085ZM89.214 238.18C87.794 238.18 86.684 237.79 85.884 237.01L86.619 236.005C87.279 236.595 88.144 236.89 89.214 236.89C89.764 236.89 90.194 236.805 90.504 236.635C90.824 236.455 90.984 236.215 90.984 235.915C90.984 235.285 90.349 234.97 89.079 234.97H87.534V233.71H89.079C89.629 233.71 90.059 233.63 90.369 233.47C90.689 233.31 90.849 233.075 90.849 232.765C90.849 232.505 90.684 232.29 90.354 232.12C90.024 231.95 89.609 231.865 89.109 231.865C88.139 231.865 87.364 232.155 86.784 232.735L86.004 231.775C86.774 230.985 87.784 230.59 89.034 230.59C90.104 230.58 90.944 230.755 91.554 231.115C92.174 231.465 92.484 231.945 92.484 232.555C92.484 233.015 92.289 233.405 91.899 233.725C91.519 234.035 91.074 234.225 90.564 234.295C91.074 234.335 91.544 234.505 91.974 234.805C92.414 235.105 92.634 235.515 92.634 236.035C92.634 236.665 92.324 237.18 91.704 237.58C91.094 237.98 90.264 238.18 89.214 238.18ZM95.7962 238H94.2212V230.755H95.7962V233.605H99.1262V230.755H100.701V238H99.1262V234.985H95.7962V238ZM106.017 238.18C104.897 238.18 103.997 237.815 103.317 237.085C102.637 236.345 102.297 235.44 102.297 234.37C102.297 233.3 102.637 232.4 103.317 231.67C103.997 230.94 104.897 230.575 106.017 230.575C107.147 230.575 108.052 230.94 108.732 231.67C109.412 232.4 109.752 233.3 109.752 234.37C109.752 235.45 109.412 236.355 108.732 237.085C108.052 237.815 107.147 238.18 106.017 238.18ZM106.017 236.785C106.667 236.785 107.177 236.555 107.547 236.095C107.927 235.625 108.117 235.05 108.117 234.37C108.117 233.7 107.927 233.135 107.547 232.675C107.177 232.205 106.667 231.97 106.017 231.97C105.377 231.97 104.867 232.205 104.487 232.675C104.117 233.135 103.932 233.7 103.932 234.37C103.932 235.05 104.117 235.625 104.487 236.095C104.867 236.555 105.377 236.785 106.017 236.785ZM114.645 238.18C113.545 238.18 112.645 237.825 111.945 237.115C111.245 236.395 110.895 235.48 110.895 234.37C110.895 233.27 111.245 232.365 111.945 231.655C112.645 230.935 113.545 230.575 114.645 230.575C115.855 230.575 116.78 231.005 117.42 231.865L116.385 232.825C115.985 232.255 115.43 231.97 114.72 231.97C114.06 231.97 113.53 232.195 113.13 232.645C112.73 233.085 112.53 233.66 112.53 234.37C112.53 235.08 112.73 235.66 113.13 236.11C113.53 236.56 114.06 236.785 114.72 236.785C115.41 236.785 115.965 236.5 116.385 235.93L117.42 236.89C116.78 237.75 115.855 238.18 114.645 238.18ZM124.801 238H123.226V237.22C122.666 237.86 121.886 238.18 120.886 238.18C120.226 238.18 119.641 237.97 119.131 237.55C118.621 237.12 118.366 236.53 118.366 235.78C118.366 235.01 118.616 234.425 119.116 234.025C119.626 233.625 120.216 233.425 120.886 233.425C121.916 233.425 122.696 233.735 123.226 234.355V233.275C123.226 232.855 123.071 232.525 122.761 232.285C122.451 232.045 122.041 231.925 121.531 231.925C120.721 231.925 120.006 232.23 119.386 232.84L118.741 231.745C119.561 230.965 120.576 230.575 121.786 230.575C122.676 230.575 123.401 230.785 123.961 231.205C124.521 231.625 124.801 232.29 124.801 233.2V238ZM121.501 237.1C122.291 237.1 122.866 236.85 123.226 236.35V235.255C122.866 234.755 122.291 234.505 121.501 234.505C121.051 234.505 120.681 234.625 120.391 234.865C120.101 235.105 119.956 235.42 119.956 235.81C119.956 236.2 120.101 236.515 120.391 236.755C120.681 236.985 121.051 237.1 121.501 237.1Z" fill="#333331"/>
<circle cx="59.5" cy="276" r="3" stroke="#FDB106" stroke-width="3"/>
<path opacity="0.66" d="M78.065 262.995H84.92V264.54H79.82V266.73H82.46C83.47 266.73 84.265 267.035 84.845 267.645C85.435 268.245 85.73 268.985 85.73 269.865C85.73 270.755 85.435 271.5 84.845 272.1C84.265 272.7 83.47 273 82.46 273H78.065V262.995ZM82.22 268.275H79.82V271.455H82.22C82.72 271.455 83.13 271.31 83.45 271.02C83.77 270.73 83.93 270.345 83.93 269.865C83.93 269.385 83.77 269 83.45 268.71C83.13 268.42 82.72 268.275 82.22 268.275ZM90.491 273.18C89.391 273.18 88.481 272.83 87.761 272.13C87.051 271.42 86.696 270.5 86.696 269.37C86.696 268.31 87.041 267.415 87.731 266.685C88.431 265.945 89.311 265.575 90.371 265.575C91.441 265.575 92.301 265.945 92.951 266.685C93.611 267.425 93.941 268.37 93.941 269.52V269.895H88.346C88.406 270.465 88.641 270.94 89.051 271.32C89.461 271.7 89.996 271.89 90.656 271.89C91.026 271.89 91.396 271.82 91.766 271.68C92.146 271.54 92.461 271.345 92.711 271.095L93.431 272.13C92.701 272.83 91.721 273.18 90.491 273.18ZM92.411 268.785C92.391 268.285 92.206 267.84 91.856 267.45C91.516 267.06 91.021 266.865 90.371 266.865C89.751 266.865 89.266 267.06 88.916 267.45C88.566 267.83 88.371 268.275 88.331 268.785H92.411ZM98.7956 273.18C97.6956 273.18 96.7956 272.825 96.0956 272.115C95.3956 271.395 95.0456 270.48 95.0456 269.37C95.0456 268.27 95.3956 267.365 96.0956 266.655C96.7956 265.935 97.6956 265.575 98.7956 265.575C100.006 265.575 100.931 266.005 101.571 266.865L100.536 267.825C100.136 267.255 99.5806 266.97 98.8706 266.97C98.2106 266.97 97.6806 267.195 97.2806 267.645C96.8806 268.085 96.6806 268.66 96.6806 269.37C96.6806 270.08 96.8806 270.66 97.2806 271.11C97.6806 271.56 98.2106 271.785 98.8706 271.785C99.5606 271.785 100.116 271.5 100.536 270.93L101.571 271.89C100.931 272.75 100.006 273.18 98.7956 273.18ZM109.432 273H107.857V267.135H104.527V273H102.952V265.755H109.432V273ZM110.727 273.18V271.89C111.037 271.89 111.282 271.69 111.462 271.29C111.652 270.89 111.807 270.22 111.927 269.28L112.362 265.755H117.957V273H116.382V267.135H113.757L113.502 269.46C113.362 270.76 113.067 271.705 112.617 272.295C112.167 272.885 111.537 273.18 110.727 273.18ZM126.002 273H124.427V272.22C123.867 272.86 123.087 273.18 122.087 273.18C121.427 273.18 120.842 272.97 120.332 272.55C119.822 272.12 119.567 271.53 119.567 270.78C119.567 270.01 119.817 269.425 120.317 269.025C120.827 268.625 121.417 268.425 122.087 268.425C123.117 268.425 123.897 268.735 124.427 269.355V268.275C124.427 267.855 124.272 267.525 123.962 267.285C123.652 267.045 123.242 266.925 122.732 266.925C121.922 266.925 121.207 267.23 120.587 267.84L119.942 266.745C120.762 265.965 121.777 265.575 122.987 265.575C123.877 265.575 124.602 265.785 125.162 266.205C125.722 266.625 126.002 267.29 126.002 268.2V273ZM122.702 272.1C123.492 272.1 124.067 271.85 124.427 271.35V270.255C124.067 269.755 123.492 269.505 122.702 269.505C122.252 269.505 121.882 269.625 121.592 269.865C121.302 270.105 121.157 270.42 121.157 270.81C121.157 271.2 121.302 271.515 121.592 271.755C121.882 271.985 122.252 272.1 122.702 272.1ZM130.939 273H129.364V267.135H127.294V265.755H133.024V267.135H130.939V273ZM135.889 273H134.314V265.755H135.889V268.605H139.219V265.755H140.794V273H139.219V269.985H135.889V273ZM148.839 273H147.264V272.22C146.704 272.86 145.924 273.18 144.924 273.18C144.264 273.18 143.679 272.97 143.169 272.55C142.659 272.12 142.404 271.53 142.404 270.78C142.404 270.01 142.654 269.425 143.154 269.025C143.664 268.625 144.254 268.425 144.924 268.425C145.954 268.425 146.734 268.735 147.264 269.355V268.275C147.264 267.855 147.109 267.525 146.799 267.285C146.489 267.045 146.079 266.925 145.569 266.925C144.759 266.925 144.044 267.23 143.424 267.84L142.779 266.745C143.599 265.965 144.614 265.575 145.824 265.575C146.714 265.575 147.439 265.785 147.999 266.205C148.559 266.625 148.839 267.29 148.839 268.2V273ZM145.539 272.1C146.329 272.1 146.904 271.85 147.264 271.35V270.255C146.904 269.755 146.329 269.505 145.539 269.505C145.089 269.505 144.719 269.625 144.429 269.865C144.139 270.105 143.994 270.42 143.994 270.81C143.994 271.2 144.139 271.515 144.429 271.755C144.719 271.985 145.089 272.1 145.539 272.1ZM152.426 273H150.626L152.411 270.3C151.911 270.19 151.501 269.94 151.181 269.55C150.871 269.16 150.716 268.665 150.716 268.065C150.716 267.415 150.926 266.87 151.346 266.43C151.776 265.98 152.366 265.755 153.116 265.755H157.256V273H155.681V270.375H154.016L152.426 273ZM153.311 268.995H155.681V267.135H153.311C153.011 267.135 152.771 267.225 152.591 267.405C152.411 267.575 152.321 267.795 152.321 268.065C152.321 268.345 152.406 268.57 152.576 268.74C152.756 268.91 153.001 268.995 153.311 268.995ZM162.827 275.835L163.067 274.425C163.247 274.505 163.447 274.545 163.667 274.545C164.177 274.545 164.522 274.335 164.702 273.915L165.062 273.09L162.092 265.755H163.772L165.887 271.185L168.002 265.755H169.697L166.202 274.305C165.772 275.375 164.942 275.92 163.712 275.94C163.382 275.94 163.087 275.905 162.827 275.835ZM173.986 273.18C172.886 273.18 171.986 272.825 171.286 272.115C170.586 271.395 170.236 270.48 170.236 269.37C170.236 268.27 170.586 267.365 171.286 266.655C171.986 265.935 172.886 265.575 173.986 265.575C175.196 265.575 176.121 266.005 176.761 266.865L175.726 267.825C175.326 267.255 174.771 266.97 174.061 266.97C173.401 266.97 172.871 267.195 172.471 267.645C172.071 268.085 171.871 268.66 171.871 269.37C171.871 270.08 172.071 270.66 172.471 271.11C172.871 271.56 173.401 271.785 174.061 271.785C174.751 271.785 175.306 271.5 175.726 270.93L176.761 271.89C176.121 272.75 175.196 273.18 173.986 273.18ZM181.037 273H179.462V267.135H177.392V265.755H183.122V267.135H181.037V273ZM190.412 273H188.837V272.22C188.277 272.86 187.497 273.18 186.497 273.18C185.837 273.18 185.252 272.97 184.742 272.55C184.232 272.12 183.977 271.53 183.977 270.78C183.977 270.01 184.227 269.425 184.727 269.025C185.237 268.625 185.827 268.425 186.497 268.425C187.527 268.425 188.307 268.735 188.837 269.355V268.275C188.837 267.855 188.682 267.525 188.372 267.285C188.062 267.045 187.652 266.925 187.142 266.925C186.332 266.925 185.617 267.23 184.997 267.84L184.352 266.745C185.172 265.965 186.187 265.575 187.397 265.575C188.287 265.575 189.012 265.785 189.572 266.205C190.132 266.625 190.412 267.29 190.412 268.2V273ZM187.112 272.1C187.902 272.1 188.477 271.85 188.837 271.35V270.255C188.477 269.755 187.902 269.505 187.112 269.505C186.662 269.505 186.292 269.625 186.002 269.865C185.712 270.105 185.567 270.42 185.567 270.81C185.567 271.2 185.712 271.515 186.002 271.755C186.292 271.985 186.662 272.1 187.112 272.1ZM194.029 273H192.454V265.755H194.029V268.605H197.359V265.755H198.934V273H197.359V269.985H194.029V273ZM204.249 273.18C203.129 273.18 202.229 272.815 201.549 272.085C200.869 271.345 200.529 270.44 200.529 269.37C200.529 268.3 200.869 267.4 201.549 266.67C202.229 265.94 203.129 265.575 204.249 265.575C205.379 265.575 206.284 265.94 206.964 266.67C207.644 267.4 207.984 268.3 207.984 269.37C207.984 270.45 207.644 271.355 206.964 272.085C206.284 272.815 205.379 273.18 204.249 273.18ZM204.249 271.785C204.899 271.785 205.409 271.555 205.779 271.095C206.159 270.625 206.349 270.05 206.349 269.37C206.349 268.7 206.159 268.135 205.779 267.675C205.409 267.205 204.899 266.97 204.249 266.97C203.609 266.97 203.099 267.205 202.719 267.675C202.349 268.135 202.164 268.7 202.164 269.37C202.164 270.05 202.349 270.625 202.719 271.095C203.099 271.555 203.609 271.785 204.249 271.785ZM214.018 273H209.578V265.755H213.913C214.583 265.755 215.108 265.93 215.488 266.28C215.868 266.63 216.058 267.075 216.058 267.615C216.058 268.035 215.943 268.39 215.713 268.68C215.483 268.97 215.193 269.165 214.843 269.265C215.233 269.355 215.558 269.57 215.818 269.91C216.078 270.24 216.208 270.615 216.208 271.035C216.208 271.615 216.013 272.09 215.623 272.46C215.243 272.82 214.708 273 214.018 273ZM213.688 271.62C213.968 271.62 214.188 271.55 214.348 271.41C214.508 271.26 214.588 271.06 214.588 270.81C214.588 270.58 214.508 270.385 214.348 270.225C214.188 270.065 213.968 269.985 213.688 269.985H211.153V271.62H213.688ZM213.643 268.605C213.893 268.605 214.088 268.54 214.228 268.41C214.378 268.27 214.453 268.095 214.453 267.885C214.453 267.655 214.378 267.475 214.228 267.345C214.088 267.205 213.893 267.135 213.643 267.135H211.153V268.605H213.643ZM224.942 273H222.962L220.742 270.015L219.737 271.05V273H218.162V265.755H219.737V269.25L222.932 265.755H224.882L221.867 269.04L224.942 273ZM232.057 273H230.482V272.22C229.922 272.86 229.142 273.18 228.142 273.18C227.482 273.18 226.897 272.97 226.387 272.55C225.877 272.12 225.622 271.53 225.622 270.78C225.622 270.01 225.872 269.425 226.372 269.025C226.882 268.625 227.472 268.425 228.142 268.425C229.172 268.425 229.952 268.735 230.482 269.355V268.275C230.482 267.855 230.327 267.525 230.017 267.285C229.707 267.045 229.297 266.925 228.787 266.925C227.977 266.925 227.262 267.23 226.642 267.84L225.997 266.745C226.817 265.965 227.832 265.575 229.042 265.575C229.932 265.575 230.657 265.785 231.217 266.205C231.777 266.625 232.057 267.29 232.057 268.2V273ZM228.757 272.1C229.547 272.1 230.122 271.85 230.482 271.35V270.255C230.122 269.755 229.547 269.505 228.757 269.505C228.307 269.505 227.937 269.625 227.647 269.865C227.357 270.105 227.212 270.42 227.212 270.81C227.212 271.2 227.357 271.515 227.647 271.755C227.937 271.985 228.307 272.1 228.757 272.1ZM239.752 273H237.997V262.995H244.852V264.54H239.752V273ZM246.419 262.995H253.274V264.54H248.174V266.73H250.814C251.824 266.73 252.619 267.035 253.199 267.645C253.789 268.245 254.084 268.985 254.084 269.865C254.084 270.755 253.789 271.5 253.199 272.1C252.619 272.7 251.824 273 250.814 273H246.419V262.995ZM250.574 268.275H248.174V271.455H250.574C251.074 271.455 251.484 271.31 251.804 271.02C252.124 270.73 252.284 270.345 252.284 269.865C252.284 269.385 252.124 269 251.804 268.71C251.484 268.42 251.074 268.275 250.574 268.275ZM263.885 271.725C262.925 272.695 261.7 273.18 260.21 273.18C258.72 273.18 257.495 272.695 256.535 271.725C255.575 270.745 255.095 269.505 255.095 268.005C255.095 266.505 255.575 265.27 256.535 264.3C257.495 263.32 258.72 262.83 260.21 262.83C261.7 262.83 262.925 263.32 263.885 264.3C264.845 265.27 265.325 266.505 265.325 268.005C265.325 269.505 264.845 270.745 263.885 271.725ZM260.21 271.62C261.2 271.62 262 271.28 262.61 270.6C263.22 269.91 263.525 269.045 263.525 268.005C263.525 266.955 263.22 266.09 262.61 265.41C262 264.73 261.2 264.39 260.21 264.39C259.21 264.39 258.405 264.73 257.795 265.41C257.195 266.09 256.895 266.955 256.895 268.005C256.895 269.055 257.195 269.92 257.795 270.6C258.405 271.28 259.21 271.62 260.21 271.62ZM77.27 289.845V286.695C77.61 286.615 77.865 286.42 78.035 286.11C78.215 285.79 78.36 285.18 78.47 284.28L78.905 280.755H84.5V286.62H85.295V289.845H83.72V288H78.845V289.845H77.27ZM80.3 282.135L80.045 284.46C79.945 285.42 79.625 286.14 79.085 286.62H82.925V282.135H80.3ZM85.8393 288.18V286.89C86.1493 286.89 86.3943 286.69 86.5743 286.29C86.7643 285.89 86.9193 285.22 87.0393 284.28L87.4743 280.755H93.0693V288H91.4943V282.135H88.8693L88.6143 284.46C88.4743 285.76 88.1793 286.705 87.7293 287.295C87.2793 287.885 86.6493 288.18 85.8393 288.18ZM96.6597 288H94.8597L96.6447 285.3C96.1447 285.19 95.7347 284.94 95.4147 284.55C95.1047 284.16 94.9497 283.665 94.9497 283.065C94.9497 282.415 95.1597 281.87 95.5797 281.43C96.0097 280.98 96.5997 280.755 97.3497 280.755H101.49V288H99.9147V285.375H98.2497L96.6597 288ZM97.5447 283.995H99.9147V282.135H97.5447C97.2447 282.135 97.0047 282.225 96.8247 282.405C96.6447 282.575 96.5547 282.795 96.5547 283.065C96.5547 283.345 96.6397 283.57 96.8097 283.74C96.9897 283.91 97.2347 283.995 97.5447 283.995ZM109.49 288.18C108.28 288.18 107.355 287.75 106.715 286.89L107.69 285.975C108.14 286.585 108.715 286.89 109.415 286.89C109.975 286.89 110.44 286.73 110.81 286.41C111.19 286.08 111.435 285.62 111.545 285.03H108.275V283.665H111.53C111.42 283.105 111.175 282.665 110.795 282.345C110.425 282.025 109.965 281.865 109.415 281.865C108.695 281.865 108.12 282.17 107.69 282.78L106.715 281.865C107.355 281.005 108.28 280.575 109.49 280.575C110.59 280.575 111.49 280.935 112.19 281.655C112.89 282.365 113.24 283.27 113.24 284.37C113.24 285.48 112.89 286.395 112.19 287.115C111.49 287.825 110.59 288.18 109.49 288.18ZM121.612 288H119.632L117.412 285.015L116.407 286.05V288H114.832V280.755H116.407V284.25L119.602 280.755H121.552L118.537 284.04L121.612 288ZM125.924 288.18C124.804 288.18 123.904 287.815 123.224 287.085C122.544 286.345 122.204 285.44 122.204 284.37C122.204 283.3 122.544 282.4 123.224 281.67C123.904 280.94 124.804 280.575 125.924 280.575C127.054 280.575 127.959 280.94 128.639 281.67C129.319 282.4 129.659 283.3 129.659 284.37C129.659 285.45 129.319 286.355 128.639 287.085C127.959 287.815 127.054 288.18 125.924 288.18ZM125.924 286.785C126.574 286.785 127.084 286.555 127.454 286.095C127.834 285.625 128.024 285.05 128.024 284.37C128.024 283.7 127.834 283.135 127.454 282.675C127.084 282.205 126.574 281.97 125.924 281.97C125.284 281.97 124.774 282.205 124.394 282.675C124.024 283.135 123.839 283.7 123.839 284.37C123.839 285.05 124.024 285.625 124.394 286.095C124.774 286.555 125.284 286.785 125.924 286.785ZM132.827 288H131.252V280.755H132.827V283.605H136.157V280.755H137.732V288H136.157V284.985H132.827V288ZM143.048 288.18C141.928 288.18 141.028 287.815 140.348 287.085C139.668 286.345 139.328 285.44 139.328 284.37C139.328 283.3 139.668 282.4 140.348 281.67C141.028 280.94 141.928 280.575 143.048 280.575C144.178 280.575 145.083 280.94 145.763 281.67C146.443 282.4 146.783 283.3 146.783 284.37C146.783 285.45 146.443 286.355 145.763 287.085C145.083 287.815 144.178 288.18 143.048 288.18ZM143.048 286.785C143.698 286.785 144.208 286.555 144.578 286.095C144.958 285.625 145.148 285.05 145.148 284.37C145.148 283.7 144.958 283.135 144.578 282.675C144.208 282.205 143.698 281.97 143.048 281.97C142.408 281.97 141.898 282.205 141.518 282.675C141.148 283.135 140.963 283.7 140.963 284.37C140.963 285.05 141.148 285.625 141.518 286.095C141.898 286.555 142.408 286.785 143.048 286.785ZM156.491 288H154.916V282.96L152.756 288H152.126L149.951 282.96V288H148.376V280.755H150.431L152.441 285.435L154.421 280.755H156.491V288ZM160.043 288H158.528V280.755H160.103V285.63L163.433 280.755H165.008V288H163.433V282.99L160.043 288ZM168.568 288H167.053V280.755H168.628V285.63L171.958 280.755H173.533V288H171.958V282.99L168.568 288ZM182.326 288H180.751V282.135H178.681V280.755H184.411V282.135H182.326V288ZM188.971 288.18C187.851 288.18 186.951 287.815 186.271 287.085C185.591 286.345 185.251 285.44 185.251 284.37C185.251 283.3 185.591 282.4 186.271 281.67C186.951 280.94 187.851 280.575 188.971 280.575C190.101 280.575 191.006 280.94 191.686 281.67C192.366 282.4 192.706 283.3 192.706 284.37C192.706 285.45 192.366 286.355 191.686 287.085C191.006 287.815 190.101 288.18 188.971 288.18ZM188.971 286.785C189.621 286.785 190.131 286.555 190.501 286.095C190.881 285.625 191.071 285.05 191.071 284.37C191.071 283.7 190.881 283.135 190.501 282.675C190.131 282.205 189.621 281.97 188.971 281.97C188.331 281.97 187.821 282.205 187.441 282.675C187.071 283.135 186.886 283.7 186.886 284.37C186.886 285.05 187.071 285.625 187.441 286.095C187.821 286.555 188.331 286.785 188.971 286.785ZM200.779 288H199.204V282.135H195.874V288H194.299V280.755H200.779V288ZM202.075 288.18V286.89C202.385 286.89 202.63 286.69 202.81 286.29C203 285.89 203.155 285.22 203.275 284.28L203.71 280.755H209.305V288H207.73V282.135H205.105L204.85 284.46C204.71 285.76 204.415 286.705 203.965 287.295C203.515 287.885 202.885 288.18 202.075 288.18ZM212.865 288H211.35V280.755H212.925V285.63L216.255 280.755H217.83V288H216.255V282.99L212.865 288ZM224.315 288H219.875V280.755H224.21C224.88 280.755 225.405 280.93 225.785 281.28C226.165 281.63 226.355 282.075 226.355 282.615C226.355 283.035 226.24 283.39 226.01 283.68C225.78 283.97 225.49 284.165 225.14 284.265C225.53 284.355 225.855 284.57 226.115 284.91C226.375 285.24 226.505 285.615 226.505 286.035C226.505 286.615 226.31 287.09 225.92 287.46C225.54 287.82 225.005 288 224.315 288ZM223.985 286.62C224.265 286.62 224.485 286.55 224.645 286.41C224.805 286.26 224.885 286.06 224.885 285.81C224.885 285.58 224.805 285.385 224.645 285.225C224.485 285.065 224.265 284.985 223.985 284.985H221.45V286.62H223.985ZM223.94 283.605C224.19 283.605 224.385 283.54 224.525 283.41C224.675 283.27 224.75 283.095 224.75 282.885C224.75 282.655 224.675 282.475 224.525 282.345C224.385 282.205 224.19 282.135 223.94 282.135H221.45V283.605H223.94ZM234.459 288H232.884V287.22C232.324 287.86 231.544 288.18 230.544 288.18C229.884 288.18 229.299 287.97 228.789 287.55C228.279 287.12 228.024 286.53 228.024 285.78C228.024 285.01 228.274 284.425 228.774 284.025C229.284 283.625 229.874 283.425 230.544 283.425C231.574 283.425 232.354 283.735 232.884 284.355V283.275C232.884 282.855 232.729 282.525 232.419 282.285C232.109 282.045 231.699 281.925 231.189 281.925C230.379 281.925 229.664 282.23 229.044 282.84L228.399 281.745C229.219 280.965 230.234 280.575 231.444 280.575C232.334 280.575 233.059 280.785 233.619 281.205C234.179 281.625 234.459 282.29 234.459 283.2V288ZM231.159 287.1C231.949 287.1 232.524 286.85 232.884 286.35V285.255C232.524 284.755 231.949 284.505 231.159 284.505C230.709 284.505 230.339 284.625 230.049 284.865C229.759 285.105 229.614 285.42 229.614 285.81C229.614 286.2 229.759 286.515 230.049 286.755C230.339 286.985 230.709 287.1 231.159 287.1Z" fill="#333331"/>
<circle cx="59.5" cy="318.5" r="3" stroke="#FDB106" stroke-width="3"/>
<path opacity="0.66" d="M86.405 321.725C85.445 322.695 84.22 323.18 82.73 323.18C81.24 323.18 80.015 322.695 79.055 321.725C78.095 320.745 77.615 319.505 77.615 318.005C77.615 316.505 78.095 315.27 79.055 314.3C80.015 313.32 81.24 312.83 82.73 312.83C84.22 312.83 85.445 313.32 86.405 314.3C87.365 315.27 87.845 316.505 87.845 318.005C87.845 319.505 87.365 320.745 86.405 321.725ZM82.73 321.62C83.72 321.62 84.52 321.28 85.13 320.6C85.74 319.91 86.045 319.045 86.045 318.005C86.045 316.955 85.74 316.09 85.13 315.41C84.52 314.73 83.72 314.39 82.73 314.39C81.73 314.39 80.925 314.73 80.315 315.41C79.715 316.09 79.415 316.955 79.415 318.005C79.415 319.055 79.715 319.92 80.315 320.6C80.925 321.28 81.73 321.62 82.73 321.62ZM96.2697 323H94.2897L92.0697 320.015L91.0647 321.05V323H89.4897V315.755H91.0647V319.25L94.2597 315.755H96.2097L93.1947 319.04L96.2697 323ZM96.6352 323.18V321.89C96.9452 321.89 97.1902 321.69 97.3702 321.29C97.5602 320.89 97.7152 320.22 97.8352 319.28L98.2702 315.755H103.865V323H102.29V317.135H99.6652L99.4102 319.46C99.2702 320.76 98.9752 321.705 98.5252 322.295C98.0752 322.885 97.4452 323.18 96.6352 323.18ZM109.256 323.18C108.156 323.18 107.246 322.83 106.526 322.13C105.816 321.42 105.461 320.5 105.461 319.37C105.461 318.31 105.806 317.415 106.496 316.685C107.196 315.945 108.076 315.575 109.136 315.575C110.206 315.575 111.066 315.945 111.716 316.685C112.376 317.425 112.706 318.37 112.706 319.52V319.895H107.111C107.171 320.465 107.406 320.94 107.816 321.32C108.226 321.7 108.761 321.89 109.421 321.89C109.791 321.89 110.161 321.82 110.531 321.68C110.911 321.54 111.226 321.345 111.476 321.095L112.196 322.13C111.466 322.83 110.486 323.18 109.256 323.18ZM111.176 318.785C111.156 318.285 110.971 317.84 110.621 317.45C110.281 317.06 109.786 316.865 109.136 316.865C108.516 316.865 108.031 317.06 107.681 317.45C107.331 317.83 107.136 318.275 107.096 318.785H111.176ZM115.775 323H114.26V315.755H115.835V320.63L119.165 315.755H120.74V323H119.165V317.99L115.775 323ZM120.125 313.67C119.475 314.55 118.6 314.99 117.5 314.99C116.41 314.99 115.53 314.55 114.86 313.67L115.58 313.07C116.06 313.73 116.7 314.06 117.5 314.06C118.3 314.06 118.935 313.73 119.405 313.07L120.125 313.67ZM129.566 323H127.586L125.366 320.015L124.361 321.05V323H122.786V315.755H124.361V319.25L127.556 315.755H129.506L126.491 319.04L129.566 323ZM136.681 323H135.106V322.22C134.546 322.86 133.766 323.18 132.766 323.18C132.106 323.18 131.521 322.97 131.011 322.55C130.501 322.12 130.246 321.53 130.246 320.78C130.246 320.01 130.496 319.425 130.996 319.025C131.506 318.625 132.096 318.425 132.766 318.425C133.796 318.425 134.576 318.735 135.106 319.355V318.275C135.106 317.855 134.951 317.525 134.641 317.285C134.331 317.045 133.921 316.925 133.411 316.925C132.601 316.925 131.886 317.23 131.266 317.84L130.621 316.745C131.441 315.965 132.456 315.575 133.666 315.575C134.556 315.575 135.281 315.785 135.841 316.205C136.401 316.625 136.681 317.29 136.681 318.2V323ZM133.381 322.1C134.171 322.1 134.746 321.85 135.106 321.35V320.255C134.746 319.755 134.171 319.505 133.381 319.505C132.931 319.505 132.561 319.625 132.271 319.865C131.981 320.105 131.836 320.42 131.836 320.81C131.836 321.2 131.981 321.515 132.271 321.755C132.561 321.985 132.931 322.1 133.381 322.1ZM148.576 323H147.001V322.22C146.441 322.86 145.661 323.18 144.661 323.18C144.001 323.18 143.416 322.97 142.906 322.55C142.396 322.12 142.141 321.53 142.141 320.78C142.141 320.01 142.391 319.425 142.891 319.025C143.401 318.625 143.991 318.425 144.661 318.425C145.691 318.425 146.471 318.735 147.001 319.355V318.275C147.001 317.855 146.846 317.525 146.536 317.285C146.226 317.045 145.816 316.925 145.306 316.925C144.496 316.925 143.781 317.23 143.161 317.84L142.516 316.745C143.336 315.965 144.351 315.575 145.561 315.575C146.451 315.575 147.176 315.785 147.736 316.205C148.296 316.625 148.576 317.29 148.576 318.2V323ZM145.276 322.1C146.066 322.1 146.641 321.85 147.001 321.35V320.255C146.641 319.755 146.066 319.505 145.276 319.505C144.826 319.505 144.456 319.625 144.166 319.865C143.876 320.105 143.731 320.42 143.731 320.81C143.731 321.2 143.876 321.515 144.166 321.755C144.456 321.985 144.826 322.1 145.276 322.1ZM155.058 323H150.618V315.755H154.953C155.623 315.755 156.148 315.93 156.528 316.28C156.908 316.63 157.098 317.075 157.098 317.615C157.098 318.035 156.983 318.39 156.753 318.68C156.523 318.97 156.233 319.165 155.883 319.265C156.273 319.355 156.598 319.57 156.858 319.91C157.118 320.24 157.248 320.615 157.248 321.035C157.248 321.615 157.053 322.09 156.663 322.46C156.283 322.82 155.748 323 155.058 323ZM154.728 321.62C155.008 321.62 155.228 321.55 155.388 321.41C155.548 321.26 155.628 321.06 155.628 320.81C155.628 320.58 155.548 320.385 155.388 320.225C155.228 320.065 155.008 319.985 154.728 319.985H152.193V321.62H154.728ZM154.683 318.605C154.933 318.605 155.128 318.54 155.268 318.41C155.418 318.27 155.493 318.095 155.493 317.885C155.493 317.655 155.418 317.475 155.268 317.345C155.128 317.205 154.933 317.135 154.683 317.135H152.193V318.605H154.683ZM162.097 323H160.522V317.135H158.452V315.755H164.182V317.135H162.097V323ZM168.741 323.18C167.621 323.18 166.721 322.815 166.041 322.085C165.361 321.345 165.021 320.44 165.021 319.37C165.021 318.3 165.361 317.4 166.041 316.67C166.721 315.94 167.621 315.575 168.741 315.575C169.871 315.575 170.776 315.94 171.456 316.67C172.136 317.4 172.476 318.3 172.476 319.37C172.476 320.45 172.136 321.355 171.456 322.085C170.776 322.815 169.871 323.18 168.741 323.18ZM168.741 321.785C169.391 321.785 169.901 321.555 170.271 321.095C170.651 320.625 170.841 320.05 170.841 319.37C170.841 318.7 170.651 318.135 170.271 317.675C169.901 317.205 169.391 316.97 168.741 316.97C168.101 316.97 167.591 317.205 167.211 317.675C166.841 318.135 166.656 318.7 166.656 319.37C166.656 320.05 166.841 320.625 167.211 321.095C167.591 321.555 168.101 321.785 168.741 321.785ZM182.185 323H180.61V317.96L178.45 323H177.82L175.645 317.96V323H174.07V315.755H176.125L178.135 320.435L180.115 315.755H182.185V323ZM187.491 323.18C186.371 323.18 185.471 322.815 184.791 322.085C184.111 321.345 183.771 320.44 183.771 319.37C183.771 318.3 184.111 317.4 184.791 316.67C185.471 315.94 186.371 315.575 187.491 315.575C188.621 315.575 189.526 315.94 190.206 316.67C190.886 317.4 191.226 318.3 191.226 319.37C191.226 320.45 190.886 321.355 190.206 322.085C189.526 322.815 188.621 323.18 187.491 323.18ZM187.491 321.785C188.141 321.785 188.651 321.555 189.021 321.095C189.401 320.625 189.591 320.05 189.591 319.37C189.591 318.7 189.401 318.135 189.021 317.675C188.651 317.205 188.141 316.97 187.491 316.97C186.851 316.97 186.341 317.205 185.961 317.675C185.591 318.135 185.406 318.7 185.406 319.37C185.406 320.05 185.591 320.625 185.961 321.095C186.341 321.555 186.851 321.785 187.491 321.785ZM196.09 321.785C196.74 321.785 197.25 321.55 197.62 321.08C198 320.61 198.19 320.03 198.19 319.34C198.19 318.68 198 318.12 197.62 317.66C197.25 317.2 196.74 316.97 196.09 316.97C195.45 316.97 194.94 317.2 194.56 317.66C194.19 318.12 194.005 318.68 194.005 319.34C194.005 320.03 194.19 320.61 194.56 321.08C194.94 321.55 195.45 321.785 196.09 321.785ZM198.805 322.07C198.135 322.81 197.23 323.18 196.09 323.18C194.95 323.18 194.045 322.795 193.375 322.025C192.715 321.245 192.385 320.25 192.385 319.04C192.385 317.31 192.68 316.02 193.27 315.17C193.87 314.32 194.79 313.82 196.03 313.67C196.78 313.56 197.295 313.455 197.575 313.355C197.865 313.255 198.01 313.135 198.01 312.995H199.555C199.555 314.045 198.525 314.685 196.465 314.915C195.655 315.005 195.03 315.23 194.59 315.59C194.16 315.94 193.89 316.36 193.78 316.85C194.07 316.45 194.445 316.14 194.905 315.92C195.375 315.69 195.87 315.575 196.39 315.575C197.39 315.575 198.21 315.945 198.85 316.685C199.49 317.425 199.81 318.315 199.81 319.355C199.81 320.425 199.475 321.33 198.805 322.07ZM202.992 323H201.477V315.755H203.052V320.63L206.382 315.755H207.957V323H206.382V317.99L202.992 323ZM209.252 323.18V321.89C209.562 321.89 209.807 321.69 209.987 321.29C210.177 320.89 210.332 320.22 210.452 319.28L210.887 315.755H216.482V323H214.907V317.135H212.282L212.027 319.46C211.887 320.76 211.592 321.705 211.142 322.295C210.692 322.885 210.062 323.18 209.252 323.18ZM220.073 323H218.273L220.058 320.3C219.558 320.19 219.148 319.94 218.828 319.55C218.518 319.16 218.363 318.665 218.363 318.065C218.363 317.415 218.573 316.87 218.993 316.43C219.423 315.98 220.013 315.755 220.763 315.755H224.903V323H223.328V320.375H221.663L220.073 323ZM220.958 318.995H223.328V317.135H220.958C220.658 317.135 220.418 317.225 220.238 317.405C220.058 317.575 219.968 317.795 219.968 318.065C219.968 318.345 220.053 318.57 220.223 318.74C220.403 318.91 220.648 318.995 220.958 318.995ZM237.269 323H235.694V317.135H232.364V323H230.789V315.755H237.269V323ZM242.584 323.18C241.464 323.18 240.564 322.815 239.884 322.085C239.204 321.345 238.864 320.44 238.864 319.37C238.864 318.3 239.204 317.4 239.884 316.67C240.564 315.94 241.464 315.575 242.584 315.575C243.714 315.575 244.619 315.94 245.299 316.67C245.979 317.4 246.319 318.3 246.319 319.37C246.319 320.45 245.979 321.355 245.299 322.085C244.619 322.815 243.714 323.18 242.584 323.18ZM242.584 321.785C243.234 321.785 243.744 321.555 244.114 321.095C244.494 320.625 244.684 320.05 244.684 319.37C244.684 318.7 244.494 318.135 244.114 317.675C243.744 317.205 243.234 316.97 242.584 316.97C241.944 316.97 241.434 317.205 241.054 317.675C240.684 318.135 240.499 318.7 240.499 319.37C240.499 320.05 240.684 320.625 241.054 321.095C241.434 321.555 241.944 321.785 242.584 321.785ZM253.565 323H251.81V312.995H258.665V314.54H253.565V323ZM268.192 321.725C267.232 322.695 266.007 323.18 264.517 323.18C263.027 323.18 261.802 322.695 260.842 321.725C259.882 320.745 259.402 319.505 259.402 318.005C259.402 316.505 259.882 315.27 260.842 314.3C261.802 313.32 263.027 312.83 264.517 312.83C266.007 312.83 267.232 313.32 268.192 314.3C269.152 315.27 269.632 316.505 269.632 318.005C269.632 319.505 269.152 320.745 268.192 321.725ZM264.517 321.62C265.507 321.62 266.307 321.28 266.917 320.6C267.527 319.91 267.832 319.045 267.832 318.005C267.832 316.955 267.527 316.09 266.917 315.41C266.307 314.73 265.507 314.39 264.517 314.39C263.517 314.39 262.712 314.73 262.102 315.41C261.502 316.09 261.202 316.955 261.202 318.005C261.202 319.055 261.502 319.92 262.102 320.6C262.712 321.28 263.517 321.62 264.517 321.62ZM276.122 323.18C274.622 323.18 273.372 322.7 272.372 321.74C271.372 320.77 270.872 319.525 270.872 318.005C270.872 316.485 271.372 315.245 272.372 314.285C273.372 313.315 274.622 312.83 276.122 312.83C277.862 312.83 279.202 313.58 280.142 315.08L278.642 315.845C278.392 315.415 278.037 315.065 277.577 314.795C277.127 314.525 276.642 314.39 276.122 314.39C275.132 314.39 274.307 314.73 273.647 315.41C272.997 316.09 272.672 316.955 272.672 318.005C272.672 319.055 272.997 319.92 273.647 320.6C274.307 321.28 275.132 321.62 276.122 321.62C276.652 321.62 277.142 321.485 277.592 321.215C278.042 320.945 278.392 320.595 278.642 320.165L280.142 320.93C279.182 322.43 277.842 323.18 276.122 323.18ZM285.686 323H283.931V314.54H280.901V312.995H288.716V314.54H285.686V323ZM289.243 325.835L289.483 324.425C289.663 324.505 289.863 324.545 290.083 324.545C290.593 324.545 290.938 324.335 291.118 323.915L291.478 323.09L288.508 315.755H290.188L292.303 321.185L294.418 315.755H296.113L292.618 324.305C292.188 325.375 291.358 325.92 290.128 325.94C289.798 325.94 289.503 325.905 289.243 325.835Z" fill="#333331"/>
<circle cx="59.5" cy="361" r="3" stroke="#FDB106" stroke-width="3"/>
<path opacity="0.66" d="M78.065 347.995H84.92V349.54H79.82V351.73H82.46C83.47 351.73 84.265 352.035 84.845 352.645C85.435 353.245 85.73 353.985 85.73 354.865C85.73 355.755 85.435 356.5 84.845 357.1C84.265 357.7 83.47 358 82.46 358H78.065V347.995ZM82.22 353.275H79.82V356.455H82.22C82.72 356.455 83.13 356.31 83.45 356.02C83.77 355.73 83.93 355.345 83.93 354.865C83.93 354.385 83.77 354 83.45 353.71C83.13 353.42 82.72 353.275 82.22 353.275ZM87.146 350.755H88.721V353.38H91.286C92.056 353.38 92.646 353.6 93.056 354.04C93.476 354.48 93.686 355.03 93.686 355.69C93.686 356.34 93.471 356.89 93.041 357.34C92.621 357.78 92.036 358 91.286 358H87.146V350.755ZM91.091 354.76H88.721V356.62H91.091C91.401 356.62 91.641 356.535 91.811 356.365C91.991 356.195 92.081 355.97 92.081 355.69C92.081 355.41 91.991 355.185 91.811 355.015C91.641 354.845 91.401 354.76 91.091 354.76ZM96.356 358H94.781V350.755H96.356V358ZM101.696 358.18C100.596 358.18 99.696 357.825 98.996 357.115C98.296 356.395 97.946 355.48 97.946 354.37C97.946 353.27 98.296 352.365 98.996 351.655C99.696 350.935 100.596 350.575 101.696 350.575C102.906 350.575 103.831 351.005 104.471 351.865L103.436 352.825C103.036 352.255 102.481 351.97 101.771 351.97C101.111 351.97 100.581 352.195 100.181 352.645C99.781 353.085 99.581 353.66 99.581 354.37C99.581 355.08 99.781 355.66 100.181 356.11C100.581 356.56 101.111 356.785 101.771 356.785C102.461 356.785 103.016 356.5 103.436 355.93L104.471 356.89C103.831 357.75 102.906 358.18 101.696 358.18ZM108.747 358H107.172V352.135H105.102V350.755H110.832V352.135H108.747V358ZM116.022 358.18C115.062 358.18 114.287 357.785 113.697 356.995V360.76H112.122V350.755H113.697V351.745C114.277 350.965 115.052 350.575 116.022 350.575C116.972 350.575 117.742 350.915 118.332 351.595C118.932 352.275 119.232 353.2 119.232 354.37C119.232 355.54 118.932 356.47 118.332 357.16C117.742 357.84 116.972 358.18 116.022 358.18ZM115.557 356.785C116.177 356.785 116.672 356.56 117.042 356.11C117.412 355.66 117.597 355.08 117.597 354.37C117.597 353.66 117.412 353.085 117.042 352.645C116.672 352.195 116.177 351.97 115.557 351.97C115.197 351.97 114.842 352.065 114.492 352.255C114.142 352.445 113.877 352.675 113.697 352.945V355.81C113.877 356.08 114.142 356.31 114.492 356.5C114.842 356.69 115.197 356.785 115.557 356.785ZM124.063 358.18C122.943 358.18 122.043 357.815 121.363 357.085C120.683 356.345 120.343 355.44 120.343 354.37C120.343 353.3 120.683 352.4 121.363 351.67C122.043 350.94 122.943 350.575 124.063 350.575C125.193 350.575 126.098 350.94 126.778 351.67C127.458 352.4 127.798 353.3 127.798 354.37C127.798 355.45 127.458 356.355 126.778 357.085C126.098 357.815 125.193 358.18 124.063 358.18ZM124.063 356.785C124.713 356.785 125.223 356.555 125.593 356.095C125.973 355.625 126.163 355.05 126.163 354.37C126.163 353.7 125.973 353.135 125.593 352.675C125.223 352.205 124.713 351.97 124.063 351.97C123.423 351.97 122.913 352.205 122.533 352.675C122.163 353.135 121.978 353.7 121.978 354.37C121.978 355.05 122.163 355.625 122.533 356.095C122.913 356.555 123.423 356.785 124.063 356.785ZM132.737 358.18C131.637 358.18 130.727 357.83 130.007 357.13C129.297 356.42 128.942 355.5 128.942 354.37C128.942 353.31 129.287 352.415 129.977 351.685C130.677 350.945 131.557 350.575 132.617 350.575C133.687 350.575 134.547 350.945 135.197 351.685C135.857 352.425 136.187 353.37 136.187 354.52V354.895H130.592C130.652 355.465 130.887 355.94 131.297 356.32C131.707 356.7 132.242 356.89 132.902 356.89C133.272 356.89 133.642 356.82 134.012 356.68C134.392 356.54 134.707 356.345 134.957 356.095L135.677 357.13C134.947 357.83 133.967 358.18 132.737 358.18ZM134.657 353.785C134.637 353.285 134.452 352.84 134.102 352.45C133.762 352.06 133.267 351.865 132.617 351.865C131.997 351.865 131.512 352.06 131.162 352.45C130.812 352.83 130.617 353.275 130.577 353.785H134.657ZM144.864 358.18C143.744 358.18 142.844 357.815 142.164 357.085C141.484 356.345 141.144 355.44 141.144 354.37C141.144 353.3 141.484 352.4 142.164 351.67C142.844 350.94 143.744 350.575 144.864 350.575C145.994 350.575 146.899 350.94 147.579 351.67C148.259 352.4 148.599 353.3 148.599 354.37C148.599 355.45 148.259 356.355 147.579 357.085C146.899 357.815 145.994 358.18 144.864 358.18ZM144.864 356.785C145.514 356.785 146.024 356.555 146.394 356.095C146.774 355.625 146.964 355.05 146.964 354.37C146.964 353.7 146.774 353.135 146.394 352.675C146.024 352.205 145.514 351.97 144.864 351.97C144.224 351.97 143.714 352.205 143.334 352.675C142.964 353.135 142.779 353.7 142.779 354.37C142.779 355.05 142.964 355.625 143.334 356.095C143.714 356.555 144.224 356.785 144.864 356.785ZM150.733 351.61C151.233 350.92 151.883 350.575 152.683 350.575C153.483 350.575 154.133 350.97 154.633 351.76V347.995H156.208V351.745C156.698 350.965 157.348 350.575 158.158 350.575C158.958 350.575 159.608 350.915 160.108 351.595C160.608 352.275 160.858 353.2 160.858 354.37C160.858 355.54 160.608 356.47 160.108 357.16C159.608 357.84 158.958 358.18 158.158 358.18C157.358 358.18 156.708 357.785 156.208 356.995V360.76H154.633V357.01C154.143 357.79 153.493 358.18 152.683 358.18C151.883 358.18 151.233 357.84 150.733 357.16C150.233 356.48 149.983 355.555 149.983 354.385C149.983 353.215 150.233 352.29 150.733 351.61ZM153.178 351.97C152.698 351.97 152.308 352.195 152.008 352.645C151.718 353.095 151.573 353.675 151.573 354.385C151.573 355.095 151.718 355.675 152.008 356.125C152.308 356.565 152.698 356.785 153.178 356.785C153.458 356.785 153.733 356.69 154.003 356.5C154.283 356.31 154.493 356.08 154.633 355.81V352.945C154.493 352.675 154.283 352.445 154.003 352.255C153.733 352.065 153.458 351.97 153.178 351.97ZM157.663 356.785C158.143 356.785 158.528 356.56 158.818 356.11C159.118 355.66 159.268 355.08 159.268 354.37C159.268 353.66 159.118 353.085 158.818 352.645C158.528 352.195 158.143 351.97 157.663 351.97C157.383 351.97 157.103 352.065 156.823 352.255C156.553 352.445 156.348 352.675 156.208 352.945V355.81C156.348 356.08 156.553 356.31 156.823 356.5C157.103 356.69 157.383 356.785 157.663 356.785ZM165.958 358.18C164.838 358.18 163.938 357.815 163.258 357.085C162.578 356.345 162.238 355.44 162.238 354.37C162.238 353.3 162.578 352.4 163.258 351.67C163.938 350.94 164.838 350.575 165.958 350.575C167.088 350.575 167.993 350.94 168.673 351.67C169.353 352.4 169.693 353.3 169.693 354.37C169.693 355.45 169.353 356.355 168.673 357.085C167.993 357.815 167.088 358.18 165.958 358.18ZM165.958 356.785C166.608 356.785 167.118 356.555 167.488 356.095C167.868 355.625 168.058 355.05 168.058 354.37C168.058 353.7 167.868 353.135 167.488 352.675C167.118 352.205 166.608 351.97 165.958 351.97C165.318 351.97 164.808 352.205 164.428 352.675C164.058 353.135 163.873 353.7 163.873 354.37C163.873 355.05 164.058 355.625 164.428 356.095C164.808 356.555 165.318 356.785 165.958 356.785ZM175.187 358.18C174.227 358.18 173.452 357.785 172.862 356.995V360.76H171.287V350.755H172.862V351.745C173.442 350.965 174.217 350.575 175.187 350.575C176.137 350.575 176.907 350.915 177.497 351.595C178.097 352.275 178.397 353.2 178.397 354.37C178.397 355.54 178.097 356.47 177.497 357.16C176.907 357.84 176.137 358.18 175.187 358.18ZM174.722 356.785C175.342 356.785 175.837 356.56 176.207 356.11C176.577 355.66 176.762 355.08 176.762 354.37C176.762 353.66 176.577 353.085 176.207 352.645C175.837 352.195 175.342 351.97 174.722 351.97C174.362 351.97 174.007 352.065 173.657 352.255C173.307 352.445 173.042 352.675 172.862 352.945V355.81C173.042 356.08 173.307 356.31 173.657 356.5C174.007 356.69 174.362 356.785 174.722 356.785ZM188.073 358H186.498V352.96L184.338 358H183.708L181.533 352.96V358H179.958V350.755H182.013L184.023 355.435L186.003 350.755H188.073V358ZM189.36 358.18V356.89C189.67 356.89 189.915 356.69 190.095 356.29C190.285 355.89 190.44 355.22 190.56 354.28L190.995 350.755H196.59V358H195.015V352.135H192.39L192.135 354.46C191.995 355.76 191.7 356.705 191.25 357.295C190.8 357.885 190.17 358.18 189.36 358.18ZM201.98 358.18C200.88 358.18 199.97 357.83 199.25 357.13C198.54 356.42 198.185 355.5 198.185 354.37C198.185 353.31 198.53 352.415 199.22 351.685C199.92 350.945 200.8 350.575 201.86 350.575C202.93 350.575 203.79 350.945 204.44 351.685C205.1 352.425 205.43 353.37 205.43 354.52V354.895H199.835C199.895 355.465 200.13 355.94 200.54 356.32C200.95 356.7 201.485 356.89 202.145 356.89C202.515 356.89 202.885 356.82 203.255 356.68C203.635 356.54 203.95 356.345 204.2 356.095L204.92 357.13C204.19 357.83 203.21 358.18 201.98 358.18ZM203.9 353.785C203.88 353.285 203.695 352.84 203.345 352.45C203.005 352.06 202.51 351.865 201.86 351.865C201.24 351.865 200.755 352.06 200.405 352.45C200.055 352.83 199.86 353.275 199.82 353.785H203.9ZM208.56 358H206.985V350.755H208.56V353.605H211.89V350.755H213.465V358H211.89V354.985H208.56V358ZM217.025 358H215.51V350.755H217.085V355.63L220.415 350.755H221.99V358H220.415V352.99L217.025 358ZM227.381 358.18C226.281 358.18 225.371 357.83 224.651 357.13C223.941 356.42 223.586 355.5 223.586 354.37C223.586 353.31 223.931 352.415 224.621 351.685C225.321 350.945 226.201 350.575 227.261 350.575C228.331 350.575 229.191 350.945 229.841 351.685C230.501 352.425 230.831 353.37 230.831 354.52V354.895H225.236C225.296 355.465 225.531 355.94 225.941 356.32C226.351 356.7 226.886 356.89 227.546 356.89C227.916 356.89 228.286 356.82 228.656 356.68C229.036 356.54 229.351 356.345 229.601 356.095L230.321 357.13C229.591 357.83 228.611 358.18 227.381 358.18ZM229.301 353.785C229.281 353.285 229.096 352.84 228.746 352.45C228.406 352.06 227.911 351.865 227.261 351.865C226.641 351.865 226.156 352.06 225.806 352.45C225.456 352.83 225.261 353.275 225.221 353.785H229.301ZM240.678 358H236.238V350.755H240.573C241.243 350.755 241.768 350.93 242.148 351.28C242.528 351.63 242.718 352.075 242.718 352.615C242.718 353.035 242.603 353.39 242.373 353.68C242.143 353.97 241.853 354.165 241.503 354.265C241.893 354.355 242.218 354.57 242.478 354.91C242.738 355.24 242.868 355.615 242.868 356.035C242.868 356.615 242.673 357.09 242.283 357.46C241.903 357.82 241.368 358 240.678 358ZM240.348 356.62C240.628 356.62 240.848 356.55 241.008 356.41C241.168 356.26 241.248 356.06 241.248 355.81C241.248 355.58 241.168 355.385 241.008 355.225C240.848 355.065 240.628 354.985 240.348 354.985H237.813V356.62H240.348ZM240.303 353.605C240.553 353.605 240.748 353.54 240.888 353.41C241.038 353.27 241.113 353.095 241.113 352.885C241.113 352.655 241.038 352.475 240.888 352.345C240.748 352.205 240.553 352.135 240.303 352.135H237.813V353.605H240.303ZM248.122 358.18C247.022 358.18 246.122 357.825 245.422 357.115C244.722 356.395 244.372 355.48 244.372 354.37C244.372 353.27 244.722 352.365 245.422 351.655C246.122 350.935 247.022 350.575 248.122 350.575C249.332 350.575 250.257 351.005 250.897 351.865L249.862 352.825C249.462 352.255 248.907 351.97 248.197 351.97C247.537 351.97 247.007 352.195 246.607 352.645C246.207 353.085 246.007 353.66 246.007 354.37C246.007 355.08 246.207 355.66 246.607 356.11C247.007 356.56 247.537 356.785 248.197 356.785C248.887 356.785 249.442 356.5 249.862 355.93L250.897 356.89C250.257 357.75 249.332 358.18 248.122 358.18ZM255.623 358.18C254.523 358.18 253.613 357.83 252.893 357.13C252.183 356.42 251.828 355.5 251.828 354.37C251.828 353.31 252.173 352.415 252.863 351.685C253.563 350.945 254.443 350.575 255.503 350.575C256.573 350.575 257.433 350.945 258.083 351.685C258.743 352.425 259.073 353.37 259.073 354.52V354.895H253.478C253.538 355.465 253.773 355.94 254.183 356.32C254.593 356.7 255.128 356.89 255.788 356.89C256.158 356.89 256.528 356.82 256.898 356.68C257.278 356.54 257.593 356.345 257.843 356.095L258.563 357.13C257.833 357.83 256.853 358.18 255.623 358.18ZM257.543 353.785C257.523 353.285 257.338 352.84 256.988 352.45C256.648 352.06 256.153 351.865 255.503 351.865C254.883 351.865 254.398 352.06 254.048 352.45C253.698 352.83 253.503 353.275 253.463 353.785H257.543ZM266.972 358H265.202L263.327 355.33L261.437 358H259.682L262.337 354.28L259.832 350.755H261.602L263.327 353.215L265.037 350.755H266.807L264.302 354.28L266.972 358ZM77.27 374.845V371.695C77.61 371.615 77.865 371.42 78.035 371.11C78.215 370.79 78.36 370.18 78.47 369.28L78.905 365.755H84.5V371.62H85.295V374.845H83.72V373H78.845V374.845H77.27ZM80.3 367.135L80.045 369.46C79.945 370.42 79.625 371.14 79.085 371.62H82.925V367.135H80.3ZM89.8593 373.18C88.7393 373.18 87.8393 372.815 87.1593 372.085C86.4793 371.345 86.1393 370.44 86.1393 369.37C86.1393 368.3 86.4793 367.4 87.1593 366.67C87.8393 365.94 88.7393 365.575 89.8593 365.575C90.9893 365.575 91.8943 365.94 92.5743 366.67C93.2543 367.4 93.5943 368.3 93.5943 369.37C93.5943 370.45 93.2543 371.355 92.5743 372.085C91.8943 372.815 90.9893 373.18 89.8593 373.18ZM89.8593 371.785C90.5093 371.785 91.0193 371.555 91.3893 371.095C91.7693 370.625 91.9593 370.05 91.9593 369.37C91.9593 368.7 91.7693 368.135 91.3893 367.675C91.0193 367.205 90.5093 366.97 89.8593 366.97C89.2193 366.97 88.7093 367.205 88.3293 367.675C87.9593 368.135 87.7743 368.7 87.7743 369.37C87.7743 370.05 87.9593 370.625 88.3293 371.095C88.7093 371.555 89.2193 371.785 89.8593 371.785ZM101.968 373H99.988L97.768 370.015L96.763 371.05V373H95.188V365.755H96.763V369.25L99.958 365.755H101.908L98.893 369.04L101.968 373ZM102.768 375.835L103.008 374.425C103.188 374.505 103.388 374.545 103.608 374.545C104.118 374.545 104.463 374.335 104.643 373.915L105.003 373.09L102.033 365.755H103.713L105.828 371.185L107.943 365.755H109.638L106.143 374.305C105.713 375.375 104.883 375.92 103.653 375.94C103.323 375.94 103.028 375.905 102.768 375.835ZM118.742 373H117.167V367.96L115.007 373H114.377L112.202 367.96V373H110.627V365.755H112.682L114.692 370.435L116.672 365.755H118.742V373ZM124.124 373.18C123.024 373.18 122.114 372.83 121.394 372.13C120.684 371.42 120.329 370.5 120.329 369.37C120.329 368.31 120.674 367.415 121.364 366.685C122.064 365.945 122.944 365.575 124.004 365.575C125.074 365.575 125.934 365.945 126.584 366.685C127.244 367.425 127.574 368.37 127.574 369.52V369.895H121.979C122.039 370.465 122.274 370.94 122.684 371.32C123.094 371.7 123.629 371.89 124.289 371.89C124.659 371.89 125.029 371.82 125.399 371.68C125.779 371.54 126.094 371.345 126.344 371.095L127.064 372.13C126.334 372.83 125.354 373.18 124.124 373.18ZM126.044 368.785C126.024 368.285 125.839 367.84 125.489 367.45C125.149 367.06 124.654 366.865 124.004 366.865C123.384 366.865 122.899 367.06 122.549 367.45C122.199 367.83 122.004 368.275 121.964 368.785H126.044ZM130.703 373H129.128V365.755H130.703V368.605H134.033V365.755H135.608V373H134.033V369.985H130.703V373ZM140.549 373H138.974V367.135H136.904V365.755H142.634V367.135H140.549V373ZM147.193 373.18C146.073 373.18 145.173 372.815 144.493 372.085C143.813 371.345 143.473 370.44 143.473 369.37C143.473 368.3 143.813 367.4 144.493 366.67C145.173 365.94 146.073 365.575 147.193 365.575C148.323 365.575 149.228 365.94 149.908 366.67C150.588 367.4 150.928 368.3 150.928 369.37C150.928 370.45 150.588 371.355 149.908 372.085C149.228 372.815 148.323 373.18 147.193 373.18ZM147.193 371.785C147.843 371.785 148.353 371.555 148.723 371.095C149.103 370.625 149.293 370.05 149.293 369.37C149.293 368.7 149.103 368.135 148.723 367.675C148.353 367.205 147.843 366.97 147.193 366.97C146.553 366.97 146.043 367.205 145.663 367.675C145.293 368.135 145.108 368.7 145.108 369.37C145.108 370.05 145.293 370.625 145.663 371.095C146.043 371.555 146.553 371.785 147.193 371.785ZM156.962 373H152.522V365.755H156.857C157.527 365.755 158.052 365.93 158.432 366.28C158.812 366.63 159.002 367.075 159.002 367.615C159.002 368.035 158.887 368.39 158.657 368.68C158.427 368.97 158.137 369.165 157.787 369.265C158.177 369.355 158.502 369.57 158.762 369.91C159.022 370.24 159.152 370.615 159.152 371.035C159.152 371.615 158.957 372.09 158.567 372.46C158.187 372.82 157.652 373 156.962 373ZM156.632 371.62C156.912 371.62 157.132 371.55 157.292 371.41C157.452 371.26 157.532 371.06 157.532 370.81C157.532 370.58 157.452 370.385 157.292 370.225C157.132 370.065 156.912 369.985 156.632 369.985H154.097V371.62H156.632ZM156.587 368.605C156.837 368.605 157.032 368.54 157.172 368.41C157.322 368.27 157.397 368.095 157.397 367.885C157.397 367.655 157.322 367.475 157.172 367.345C157.032 367.205 156.837 367.135 156.587 367.135H154.097V368.605H156.587ZM171.438 373H169.863V367.135H166.533V373H164.958V365.755H171.438V373ZM176.754 373.18C175.634 373.18 174.734 372.815 174.054 372.085C173.374 371.345 173.034 370.44 173.034 369.37C173.034 368.3 173.374 367.4 174.054 366.67C174.734 365.94 175.634 365.575 176.754 365.575C177.884 365.575 178.789 365.94 179.469 366.67C180.149 367.4 180.489 368.3 180.489 369.37C180.489 370.45 180.149 371.355 179.469 372.085C178.789 372.815 177.884 373.18 176.754 373.18ZM176.754 371.785C177.404 371.785 177.914 371.555 178.284 371.095C178.664 370.625 178.854 370.05 178.854 369.37C178.854 368.7 178.664 368.135 178.284 367.675C177.914 367.205 177.404 366.97 176.754 366.97C176.114 366.97 175.604 367.205 175.224 367.675C174.854 368.135 174.669 368.7 174.669 369.37C174.669 370.05 174.854 370.625 175.224 371.095C175.604 371.555 176.114 371.785 176.754 371.785ZM181.333 374.845V371.695C181.673 371.615 181.928 371.42 182.098 371.11C182.278 370.79 182.423 370.18 182.533 369.28L182.968 365.755H188.562V371.62H189.358V374.845H187.783V373H182.908V374.845H181.333ZM184.363 367.135L184.108 369.46C184.008 370.42 183.688 371.14 183.148 371.62H186.988V367.135H184.363ZM201.284 373H199.304L197.084 370.015L196.079 371.05V373H194.504V365.755H196.079V369.25L199.274 365.755H201.224L198.209 369.04L201.284 373ZM201.65 373.18V371.89C201.96 371.89 202.205 371.69 202.385 371.29C202.575 370.89 202.73 370.22 202.85 369.28L203.285 365.755H208.88V373H207.305V367.135H204.68L204.425 369.46C204.285 370.76 203.99 371.705 203.54 372.295C203.09 372.885 202.46 373.18 201.65 373.18ZM217.435 373.18C216.425 373.18 215.59 372.88 214.93 372.28C214.28 371.68 213.89 370.915 213.76 369.985H212.5V373H210.925V365.755H212.5V368.605H213.775C213.935 367.715 214.34 366.99 214.99 366.43C215.65 365.86 216.465 365.575 217.435 365.575C218.565 365.575 219.47 365.94 220.15 366.67C220.83 367.4 221.17 368.3 221.17 369.37C221.17 370.45 220.83 371.355 220.15 372.085C219.47 372.815 218.565 373.18 217.435 373.18ZM217.435 371.785C218.085 371.785 218.595 371.555 218.965 371.095C219.345 370.625 219.535 370.05 219.535 369.37C219.535 368.7 219.345 368.135 218.965 367.675C218.595 367.205 218.085 366.97 217.435 366.97C216.795 366.97 216.285 367.205 215.905 367.675C215.535 368.135 215.35 368.7 215.35 369.37C215.35 370.05 215.535 370.625 215.905 371.095C216.285 371.555 216.795 371.785 217.435 371.785ZM222.506 365.755H224.081V367.705C224.081 368.245 224.216 368.625 224.486 368.845C224.766 369.065 225.206 369.175 225.806 369.175C226.456 369.175 226.986 369.085 227.396 368.905V365.755H228.971V373H227.396V370.18C226.876 370.44 226.181 370.57 225.311 370.57C224.321 370.57 223.606 370.38 223.166 370C222.726 369.62 222.506 369.045 222.506 368.275V365.755Z" fill="#333331"/>
<circle cx="198" cy="88" r="27.5" fill="#009900" stroke="#FDB106" stroke-width="5"/>
<path fill-rule="evenodd" clip-rule="evenodd" d="M215.938 75.0764C217.354 76.5116 217.354 78.8384 215.938 80.2736L195.556 100.924C194.139 102.359 191.843 102.359 190.426 100.924L180.063 90.4236C178.646 88.9884 178.646 86.6616 180.063 85.2264C181.479 83.7912 183.776 83.7912 185.192 85.2264L192.991 93.1278L210.808 75.0764C212.225 73.6412 214.521 73.6412 215.938 75.0764Z" fill="white"/>
<defs>
<filter id="filter0_d_62_532" x="0" y="0" width="395" height="450" filterUnits="userSpaceOnUse" color-interpolation-filters="sRGB">
<feFlood flood-opacity="0" result="BackgroundImageFix"/>
<feColorMatrix in="SourceAlpha" type="matrix" values="0 0 0 0 0 0 0 0 0 0 0 0 0 0 0 0 0 0 127 0" result="hardAlpha"/>
<feOffset/>
<feGaussianBlur stdDeviation="15"/>
<feColorMatrix type="matrix" values="0 0 0 0 0.992157 0 0 0 0 0.694118 0 0 0 0 0.0235294 0 0 0 1 0"/>
<feBlend mode="normal" in2="BackgroundImageFix" result="effect1_dropShadow_62_532"/>
<feBlend mode="normal" in="SourceGraphic" in2="effect1_dropShadow_62_532" result="shape"/>
</filter>
</defs>
</svg>
