<svg width="53" height="53" viewBox="0 0 53 53" fill="none" xmlns="http://www.w3.org/2000/svg">
<path d="M40.1629 17.4961C40.5319 17.4945 40.8975 17.5642 41.2388 17.7013C41.5801 17.8384 41.8903 18.0401 42.1515 18.2948C42.4127 18.5495 42.6197 18.8521 42.7608 19.1854C42.9018 19.5186 42.974 19.8758 42.9731 20.2364V18.3693C42.9748 18.0082 42.9032 17.6504 42.7625 17.3165C42.6219 16.9826 42.415 16.6792 42.1537 16.4238C41.8924 16.1685 41.582 15.9662 41.2403 15.8288C40.8986 15.6913 40.5324 15.6214 40.1629 15.623H38.8934L33.7413 7.96208L31.2762 9.56412L27.0238 5.48674L25.0641 7.43208L20.4605 4.84833L14.0881 15.623H9.31814C9.17066 15.6225 9.02453 15.6504 8.88811 15.7052C8.75169 15.76 8.62767 15.8405 8.52314 15.9422C8.33428 16.1277 8.22046 16.3737 8.20267 16.6348V46.4593C8.19976 46.9095 8.37921 47.3426 8.70186 47.6639C8.94241 47.9076 9.25481 48.0718 9.59546 48.1337V17.4659C9.81409 17.494 10.0344 17.5081 10.2549 17.5081L40.1629 17.4961Z" fill="#333331"/>
<path d="M29.2793 33.125L32.3607 27.9214H42.9731V20.664C42.9747 20.3023 42.9032 19.9439 42.7627 19.6093C42.6222 19.2747 42.4154 18.9705 42.1543 18.7142C41.8932 18.4579 41.5829 18.2545 41.2411 18.1158C40.8993 17.977 40.5329 17.9056 40.1628 17.9056H10.5814V48.1818H40.1628C40.5329 48.1818 40.8993 48.1104 41.2411 47.9716C41.5829 47.8328 41.8932 47.6295 42.1543 47.3732C42.4154 47.1169 42.6222 46.8127 42.7627 46.4781C42.9032 46.1435 42.9747 45.7851 42.9731 45.4234V38.1178H32.3854L29.2793 33.125Z" fill="#333331"/>
<path d="M33.0141 29.138L30.5859 33.2033L33.0141 37.0639H44.8035V29.138H33.0141Z" fill="#333331"/>
<path d="M21.1137 7.22729L16.1465 15.623H16.8182L23.7514 8.72093L21.1137 7.22729Z" fill="#FDB106"/>
<path d="M27.0176 7.95001L19.3203 15.623H21.8286L29.7293 10.5458L27.0176 7.95001Z" fill="#FDB106"/>
<path d="M33.2297 10.3772L25.0763 15.623H36.7609L33.2297 10.3772Z" fill="#FDB106"/>
<path d="M35.4915 30.6738C35.0039 30.6738 34.5273 30.8151 34.1219 31.0798C33.7166 31.3445 33.4006 31.7207 33.214 32.1609C33.0274 32.6011 32.9786 33.0855 33.0737 33.5529C33.1689 34.0202 33.4036 34.4494 33.7484 34.7863C34.0931 35.1233 34.5324 35.3527 35.0106 35.4457C35.4887 35.5386 35.9844 35.4909 36.4348 35.3086C36.8853 35.1262 37.2703 34.8175 37.5412 34.4213C37.812 34.0251 37.9566 33.5593 37.9566 33.0829C37.9566 32.4439 37.6969 31.8312 37.2346 31.3794C36.7723 30.9276 36.1453 30.6738 35.4915 30.6738Z" fill="#FDB106"/>
</svg>
