<svg width="53" height="53" viewBox="0 0 53 53" fill="none" xmlns="http://www.w3.org/2000/svg">
<path d="M10.5692 5.63728H32.139C32.5263 5.63758 32.9005 5.77445 33.1928 6.02273L43.4846 14.8099C43.6548 14.9545 43.7912 15.1331 43.8848 15.3336C43.9783 15.5341 44.0268 15.7519 44.027 15.9723V45.8089C44.027 46.0134 43.9856 46.216 43.9054 46.4049C43.8251 46.5938 43.7074 46.7654 43.5591 46.9098C43.4108 47.0541 43.2348 47.1685 43.0412 47.2462C42.8475 47.3239 42.6401 47.3635 42.4308 47.3627H10.5692C10.3599 47.3635 10.1524 47.3239 9.95883 47.2462C9.76521 47.1685 9.5892 47.0541 9.4409 46.9098C9.2926 46.7654 9.17493 46.5938 9.09464 46.4049C9.01435 46.216 8.97302 46.0134 8.97302 45.8089V7.19114C8.97302 6.98658 9.01435 6.78403 9.09464 6.59511C9.17493 6.40619 9.2926 6.23463 9.4409 6.09026C9.5892 5.94589 9.76521 5.83156 9.95883 5.75383C10.1524 5.67609 10.3599 5.63649 10.5692 5.63728Z" fill="#333331"/>
<path d="M43.2567 14.2869L42.813 13.9376L33.8338 6.32485C33.4404 6.00464 32.9728 5.78339 32.4718 5.68042C32.7589 6.06695 32.9219 6.52814 32.9402 7.00542V11.6851C32.9227 12.6336 33.2627 13.5553 33.8954 14.2749C34.1941 14.5665 34.5517 14.7941 34.9453 14.9434C35.3389 15.0928 35.76 15.1604 36.1818 15.1421H42.1535C42.4991 15.1019 42.8494 15.1547 43.1666 15.2948C43.4837 15.4349 43.7557 15.657 43.9531 15.9371C43.9643 15.6294 43.908 15.3229 43.7878 15.0383C43.6677 14.7536 43.4866 14.4974 43.2567 14.2869ZM36.4776 14.0821C35.8869 14.0486 35.3211 13.8383 34.8568 13.4798C34.4544 13.097 34.1978 12.5913 34.1296 12.0464C34.0372 11.4442 34.0741 9.20371 34.0741 9.20371C34.0741 9.20371 34.4254 11.396 35.5778 12.5343C36.7631 13.4857 38.2357 14.0296 39.7685 14.0821C37.6547 14.1062 37.1185 14.1423 36.4653 14.0821H36.4776Z" fill="#FDB106"/>
<path d="M35.3559 24.651L35.9105 23.1574L34.4376 22.4889L34.5793 20.9109L32.9832 20.6339L32.6997 19.074L31.085 19.2125L30.3948 17.7731L28.8726 18.3151L27.8311 17.1106L26.4999 18.0079L25.1688 17.0985L24.1273 18.3031L22.605 17.761L21.9148 19.2125L20.3002 19.074L20.0167 20.6339L18.4205 20.9109L18.5623 22.4889L17.0893 23.1574L17.6502 24.651L16.4176 25.6689L17.3482 26.9637L16.4176 28.2646L17.6502 29.2885L17.0893 30.7761L18.5623 31.4446L18.4205 33.0286L20.0167 33.2997L20.3002 34.8656L21.9148 34.721L22.605 36.1364L24.1273 35.5943L25.1688 36.7989L26.4999 35.9256L27.8311 36.835L28.8726 35.6304L30.3948 36.1725L31.085 34.7331L32.6997 34.8776L32.9832 33.3117L34.5793 33.0407L34.4376 31.4567L35.9105 30.7882L35.3559 29.3006L36.5884 28.2767L35.6578 26.9758L36.5884 25.6809L35.3559 24.651ZM26.4999 34.715C24.9312 34.715 23.3977 34.2604 22.0934 33.4087C20.7891 32.5569 19.7725 31.3464 19.1722 29.93C18.5719 28.5137 18.4148 26.9551 18.7208 25.4515C19.0269 23.9479 19.7823 22.5668 20.8915 21.4828C22.0007 20.3987 23.414 19.6605 24.9526 19.3614C26.4911 19.0623 28.0859 19.2158 29.5352 19.8025C30.9845 20.3892 32.2232 21.3827 33.0947 22.6574C33.9663 23.9321 34.4314 25.4307 34.4314 26.9637C34.4314 27.9816 34.2263 28.9896 33.8277 29.93C33.4291 30.8704 32.8449 31.7249 32.1084 32.4447C31.3718 33.1645 30.4975 33.7354 29.5352 34.125C28.5729 34.5145 27.5415 34.715 26.4999 34.715Z" fill="#FDB106"/>
<path d="M26.4999 20.5435C25.1989 20.5423 23.9267 20.9184 22.8444 21.624C21.7621 22.3297 20.9183 23.3333 20.4198 24.5078C19.9214 25.6823 19.7906 26.9749 20.0441 28.222C20.2977 29.4691 20.9241 30.6147 21.8441 31.5138C22.7641 32.4129 23.9363 33.0251 25.2124 33.2728C26.4886 33.5206 27.8112 33.3928 29.013 32.9057C30.2148 32.4186 31.2418 31.594 31.9638 30.5362C32.6859 29.4785 33.0707 28.2353 33.0695 26.9637C33.0695 25.261 32.3773 23.628 31.1453 22.424C29.9133 21.2199 28.2423 20.5435 26.4999 20.5435Z" fill="#FDB106"/>
<path d="M31.6089 35.6184L30.8448 37.2205L29.1438 36.6182L28.5953 37.2566L32.0588 41.8098L32.7799 38.961L35.775 39.1116L33.2236 35.7569L31.6089 35.6184Z" fill="#FDB106"/>
<path d="M22.1553 37.2205L21.3911 35.6184L19.7765 35.7569L17.2251 39.1116L20.2264 38.961L20.9413 41.8098L24.4047 37.2566L23.8563 36.6182L22.1553 37.2205Z" fill="#FDB106"/>
</svg>
