<svg width="53" height="53" viewBox="0 0 53 53" fill="none" xmlns="http://www.w3.org/2000/svg">
<path d="M19.4663 14.36C20.0151 14.4412 20.5693 14.4805 21.1241 14.4775C23.1468 14.4775 25.8562 14.0136 26.8644 12.3558C27.2749 11.6438 27.4247 10.8111 27.2881 10.0007C27.1516 9.19023 26.7371 8.45262 26.116 7.91447C25.4992 7.38116 24.7255 7.06314 23.912 7.00846C23.0984 6.95377 22.2892 7.16541 21.6066 7.61137C21.0551 7.88452 20.6217 8.34889 20.3873 8.91793C20.1528 9.48697 20.1333 10.1218 20.3323 10.7042C20.4828 11.165 20.7847 11.5613 21.1891 11.8286C21.5934 12.0959 22.0763 12.2185 22.5592 12.1764C22.6535 12.171 22.7458 12.1467 22.8306 12.1049C22.9154 12.0631 22.9908 12.0046 23.0526 11.9331C23.1143 11.8615 23.1611 11.7783 23.19 11.6883C23.2189 11.5984 23.2295 11.5035 23.2211 11.4094C23.192 11.218 23.0887 11.0458 22.9336 10.93C22.7784 10.8142 22.5839 10.7642 22.3922 10.7908C22.0953 10.8217 21.8602 10.5434 21.7736 10.2588C21.6717 9.97891 21.6788 9.67091 21.7934 9.39593C21.9079 9.12094 22.1217 8.89906 22.3922 8.77428C23.7592 8.01344 24.6685 8.53304 25.0829 8.91036C25.468 9.24474 25.7266 9.70115 25.8155 10.2033C25.9045 10.7054 25.8184 11.2229 25.5716 11.6692C24.786 12.9373 21.5695 13.296 19.7138 12.9867C19.5238 12.9496 19.3269 12.9875 19.1642 13.0924C19.0016 13.1974 18.886 13.3612 18.8416 13.5496C18.8268 13.6442 18.8314 13.7408 18.8552 13.8336C18.879 13.9263 18.9214 14.0132 18.9798 14.089C19.0383 14.1649 19.1116 14.228 19.1952 14.2746C19.2789 14.3211 19.3711 14.3502 19.4663 14.36V14.36Z" fill="#333331"/>
<path d="M34.3813 14.4775C34.9381 14.4807 35.4944 14.4414 36.0452 14.3599C36.1399 14.3494 36.2315 14.3198 36.3144 14.2729C36.3973 14.2259 36.4699 14.1627 36.5277 14.087C36.5855 14.0113 36.6274 13.9246 36.6508 13.8322C36.6741 13.7399 36.6786 13.6437 36.6638 13.5496C36.6194 13.3625 36.5047 13.1997 36.3434 13.0949C36.1822 12.99 35.9868 12.9513 35.7978 12.9867C33.9421 13.296 30.7441 12.9372 29.9709 11.6692C29.7241 11.2229 29.638 10.7054 29.727 10.2033C29.8159 9.70113 30.0745 9.24473 30.4595 8.91034C30.874 8.53302 31.7833 8.01342 33.1503 8.77426C33.4208 8.89904 33.6345 9.12093 33.7491 9.39591C33.8637 9.67089 33.8707 9.97889 33.7689 10.2588C33.6637 10.5434 33.4225 10.8217 33.1503 10.7908C32.9586 10.7642 32.7641 10.8142 32.6089 10.93C32.4538 11.0458 32.3505 11.218 32.3214 11.4094C32.313 11.5035 32.3235 11.5984 32.3525 11.6883C32.3814 11.7783 32.4282 11.8615 32.4899 11.9331C32.5516 12.0046 32.6271 12.063 32.7119 12.1048C32.7966 12.1466 32.8889 12.171 32.9833 12.1764C33.4611 12.2113 33.9369 12.0853 34.3348 11.8185C34.7328 11.5517 35.03 11.1595 35.1792 10.7042C35.3783 10.1218 35.3587 9.48695 35.1243 8.91791C34.8898 8.34887 34.4565 7.8845 33.905 7.61135C33.2191 7.16955 32.408 6.96318 31.5944 7.02345C30.7807 7.08371 30.0089 7.40735 29.3956 7.94538C28.7734 8.48284 28.3582 9.22052 28.2216 10.0313C28.085 10.842 28.2355 11.675 28.6471 12.3867C29.6554 14.0135 32.3647 14.4775 34.3813 14.4775Z" fill="#333331"/>
<path d="M9.95379 22.0426C10.0711 22.045 10.1874 22.0212 10.2944 21.973C10.4014 21.9249 10.4963 21.8536 10.5724 21.7643C10.6157 21.7024 15.4467 15.8755 27.7686 15.8755C40.0905 15.8755 44.903 21.6839 44.971 21.7643C45.0459 21.855 45.1406 21.9273 45.2479 21.9755C45.3551 22.0238 45.472 22.0468 45.5896 22.0426C45.7494 22.044 45.9055 21.9941 46.035 21.9004C46.1127 21.8499 46.179 21.7837 46.2296 21.7059C46.2801 21.6282 46.3138 21.5407 46.3284 21.4492C46.3429 21.3576 46.3381 21.264 46.3142 21.1745C46.2903 21.0849 46.2479 21.0013 46.1896 20.9292C45.9484 20.6632 40.8266 14.4837 27.7562 14.4837C14.6859 14.4837 9.5641 20.6694 9.35378 20.9292C9.29552 21.0013 9.25307 21.0849 9.22917 21.1745C9.20526 21.264 9.20044 21.3576 9.21502 21.4492C9.2296 21.5407 9.26325 21.6282 9.3138 21.7059C9.36434 21.7837 9.43065 21.8499 9.50842 21.9004C9.63788 21.9941 9.79395 22.044 9.95379 22.0426V22.0426Z" fill="#333331"/>
<path d="M46.4499 28.2158C43.2828 21.226 36.5528 17.7001 27.2742 17.9475C17.8843 18.1764 11.2595 21.2321 8.09857 28.2158C5.12325 34.7974 5.62429 39.9686 7.65938 43.3955C9.14395 45.8698 11.5873 46.309 15.3729 46.309H39.1755C42.9673 46.309 45.4045 45.8698 46.8891 43.3955C48.9551 39.9501 49.4252 34.7974 46.4499 28.2158Z" fill="#333331"/>
<path d="M12.1051 38.3667C11.0536 34.3893 11.6721 30.1459 13.2495 24.3746C13.2495 24.3746 8.09682 32.7439 9.60613 38.843C10.1381 41.0142 11.4247 43.006 14.2145 43.006H18.8537C18.8537 43.006 13.1753 42.3441 12.1051 38.3667Z" fill="#FDB106"/>
<path d="M42.2602 24.3746C43.8376 30.1459 44.4562 34.3893 43.4046 38.3667C42.353 42.3441 36.656 43.006 36.656 43.006H41.2953C44.085 43.006 45.3655 41.0142 45.9036 38.843C47.4129 32.7439 42.2602 24.3746 42.2602 24.3746Z" fill="#FDB106"/>
</svg>
